<?xml version="1.0" encoding="utf-8"?>
<!-- Generator: Adobe Illustrator 27.2.0, SVG Export Plug-In . SVG Version: 6.00 Build 0)  -->
<svg version="1.1" id="Layer_1" xmlns="http://www.w3.org/2000/svg" xmlns:xlink="http://www.w3.org/1999/xlink" x="0px" y="0px"
	 viewBox="0 0 178.5 87.2" style="enable-background:new 0 0 178.5 87.2;" xml:space="preserve">
<style type="text/css">
	.st0{fill:#FFFFFF;}
	.st1{fill:#EB9C22;}
</style>
<g>
	<path class="st0" d="M69.4,30.1c-1-0.7-2-1.1-3-1.1c-0.3,0-0.5,0-0.8,0.1c-1.3,0.2-2.3,0.8-3.1,1.8c-0.7,1-1.1,2-1.1,3
		c0,0.3,0,0.5,0.1,0.8c0.2,1.3,0.8,2.3,1.8,3.1c1,0.7,2,1.1,3,1.1c1.7,0,3-0.6,3.9-1.8c0.7-1,1.1-2,1.1-3
		C71.3,32.3,70.6,31,69.4,30.1z"/>
	<path class="st0" d="M52.7,39.4c1,0.7,2,1.1,3,1.1c0.3,0,0.5,0,0.8-0.1c1.3-0.2,2.3-0.8,3-1.8c0.7-1,1-2,1-3c0-1.7-0.6-2.9-1.8-3.8
		c-1-0.7-2-1.1-3-1.1c-1.7,0-3,0.6-3.8,1.8c-0.7,1-1,2-1,3C50.8,37.3,51.5,38.6,52.7,39.4z"/>
	<path class="st0" d="M54.8,44.3c1.8,5.5,2.7,9.2,2.7,11.2c0,0.5-0.1,0.9-0.2,1.2c-0.4,1-1.5,1.5-3.3,1.5l-0.6,0h-0.3l-0.1-16.7
		l-16.2,0.9l0-0.1l-0.4,0.2l-13.6,0.8l0.7,13.3l1.6-0.2v0.6c0,4.5-2.1,6.8-6.3,6.8c-3.5-0.1-5.3-1.9-5.3-5.5c0-3.2,1-7.7,2.9-13.7
		L2.3,41.6C0.8,47.5,0,52.6,0,56.9c0,11.7,6.3,17.6,18.8,17.7c12.7-0.2,19-6.8,19.2-20l2.5-0.3l-1.3,17.1h16.5
		c9.5,0,14.3-5.7,14.6-17.2c0-4-0.4-8.1-1.3-12.3L54.8,44.3z"/>
	<path class="st0" d="M93.3,47.5c1,8,1.4,13.6,1.4,16.8c0,5.7-2.2,8.9-6.7,9.6l0.2,13.4c12.2-2.1,18.3-10.1,18.3-23.8
		c0-3.8-0.4-9.8-1.3-17.8L93.3,47.5z"/>
	<path class="st0" d="M172.7,32.7c1.4,0,2.5-0.5,3.5-1.4s1.4-2.1,1.4-3.5s-0.5-2.5-1.4-3.4s-2.1-1.4-3.5-1.4s-2.5,0.5-3.4,1.4
		c-0.9,0.9-1.4,2.1-1.4,3.4s0.5,2.5,1.4,3.5C170.3,32.2,171.4,32.7,172.7,32.7z"/>
	<path class="st0" d="M161.9,32.7c1.4,0,2.5-0.5,3.5-1.4c1-1,1.4-2.1,1.4-3.5s-0.5-2.5-1.4-3.4s-2.1-1.4-3.5-1.4s-2.5,0.5-3.4,1.4
		c-0.9,0.9-1.4,2.1-1.4,3.4s0.5,2.5,1.4,3.5C159.5,32.2,160.6,32.7,161.9,32.7z"/>
	<path class="st0" d="M178.2,34.6c-3.9-0.6-7.4-0.9-10.6-0.9c-12.3,0-18.8,4.5-19.6,13.6l0,0.8c0,4.7,1.4,8.2,4.2,10.3
		c-2.5-0.1-5-0.2-7.5-0.2l0,0c-0.2,0-0.5,0-0.7,0c-0.1,0-0.2,0-0.3,0c-2.2,0-3.6-0.2-4.2-0.5c0-0.6,0.1-1.2,0.1-1.8
		c0.3-1.3,0.4-2.6,0.4-3.9c0-4.4-1.8-8.1-5.5-11c-2.4-1.8-5.2-2.8-8.4-2.8s-7,0.9-11.2,2.8l0.1,12c2.6-1,4.8-1.4,6.7-1.4
		c0.7,0,1.3,0.1,1.9,0.2c2.2,0.5,3.4,1.8,3.4,4.1c0,2.3-2.1,3.4-6.2,3.4c-2.4,0-5.9-0.4-10.6-1.3l-0.1,13.4h16
		c3.6,0,6.4-0.6,8.4-1.9c1.6,1,4.1,1.6,7.4,1.8v0.1c6.2,0.2,11.7,0.3,16.5,0.3s8.2-0.1,10.5-0.3c2-0.3,3.9-1.2,5.6-2.6
		c1.7-1.4,2.8-4.1,3.4-8.2c0.4-3.9,0.6-8.8,0.6-14.6C178.5,42.5,178.4,38.7,178.2,34.6L178.2,34.6z M166.3,54.7
		c-4.1-0.5-6.1-2.2-6.2-4.8c0-2.7,1.5-4,4.4-4c0.5,0,1.2,0.1,2.1,0.2L166.3,54.7z"/>
</g>
<g>
	<path class="st1" d="M78.4,70.5l6.8-0.1c1.9,0,3.4-1.6,3.3-3.5l-0.1-5.1l-13.6,0.2l0.1,5.1C75,69.1,76.6,70.6,78.4,70.5z"/>
	<path class="st1" d="M83.8,15.5c-0.3,0.2-0.8,0.2-1.1-0.1l-2-1.9l-1.9,2c-0.3,0.3-0.7,0.3-1,0.1L74,13.4l0.8,45.3l13.6-0.2
		l-0.8-45.3C87.6,13.1,83.8,15.5,83.8,15.5z"/>
	<path class="st1" d="M78.1,13.5l2.1-2.1c0.3-0.3,0.9-0.4,1.2,0l2.1,2.1l3.7-2.3l-2.6-4.5c0,0,0,0,0,0c-1.2,0.6-2.5,0.9-3.8,1
		c-1.3,0-2.6-0.3-3.8-0.9c0,0,0,0,0,0l-2.5,4.6C74.3,11.4,78.1,13.5,78.1,13.5z"/>
	<path class="st1" d="M80.6,6c1-0.1,2.1-0.3,3-0.8L80.5,0l-2.9,5.3C78.6,5.7,79.6,6,80.6,6z"/>
</g>
</svg>
