<?xml version="1.0" encoding="UTF-8"?>
<svg id="Layer_1" data-name="Layer 1" xmlns="http://www.w3.org/2000/svg" viewBox="0 0 178.46 87.24">
  <defs>
    <style>
      .cls-1 {
        fill: #eb9c22;
      }

      .cls-2 {
        fill: #406ab3;
      }
    </style>
  </defs>
  <g>
    <path class="cls-2" d="m69.4,30.13c-.98-.72-1.97-1.08-2.99-1.08-.27,0-.54.03-.79.09-1.33.22-2.35.81-3.06,1.79-.71.98-1.07,1.96-1.07,2.96,0,.27.02.54.06.79.22,1.33.81,2.35,1.79,3.06.98.71,1.97,1.07,2.99,1.07,1.68,0,2.97-.6,3.87-1.82.7-1,1.05-1.99,1.05-2.99,0-1.68-.62-2.97-1.85-3.87Z"/>
    <path class="cls-2" d="m52.7,39.43c.98.72,1.96,1.08,2.96,1.08.28,0,.55-.03.82-.1,1.33-.19,2.35-.78,3.05-1.77.7-.98,1.05-1.98,1.05-3,0-1.66-.62-2.93-1.85-3.81-.98-.72-1.97-1.08-2.99-1.08-1.68,0-2.96.62-3.84,1.85-.7,1-1.05,1.99-1.05,2.99,0,1.68.62,2.96,1.85,3.84Z"/>
    <path class="cls-2" d="m54.85,44.3c1.8,5.45,2.7,9.18,2.7,11.19,0,.51-.06.92-.18,1.23-.41.97-1.5,1.46-3.28,1.46l-.56-.03h-.32l-.13-16.73-16.17.91-.03-.12-.41.15-13.62.76.7,13.27,1.58-.18v.56c0,4.5-2.1,6.76-6.3,6.8-3.53-.06-5.3-1.88-5.3-5.45,0-3.16.98-7.73,2.93-13.71l-14.15-2.78c-1.54,5.85-2.31,10.93-2.31,15.23,0,11.69,6.27,17.6,18.81,17.72,12.66-.15,19.04-6.81,19.15-19.98l2.55-.29-1.26,17.11h16.5c9.47,0,14.35-5.72,14.63-17.16,0-3.98-.43-8.08-1.29-12.3l-14.24,2.34Z"/>
    <path class="cls-2" d="m93.34,47.46c.96,7.96,1.44,13.57,1.43,16.81,0,5.66-2.24,8.87-6.71,9.61l.15,13.36c12.21-2.13,18.31-10.07,18.31-23.82,0-3.84-.42-9.77-1.26-17.78l-11.92,1.82Z"/>
    <path class="cls-2" d="m172.73,32.69c1.35,0,2.5-.48,3.46-1.44s1.44-2.11,1.44-3.46-.48-2.46-1.44-3.41c-.96-.95-2.11-1.42-3.46-1.42s-2.46.47-3.41,1.42c-.95.94-1.42,2.08-1.42,3.41s.47,2.5,1.42,3.46c.94.96,2.08,1.44,3.41,1.44Z"/>
    <path class="cls-2" d="m161.95,32.69c1.35,0,2.5-.48,3.46-1.44.96-.96,1.44-2.11,1.44-3.46s-.48-2.46-1.44-3.41c-.96-.95-2.11-1.42-3.46-1.42s-2.46.47-3.41,1.42c-.95.94-1.42,2.08-1.42,3.41s.47,2.5,1.42,3.46c.94.96,2.08,1.44,3.41,1.44Z"/>
    <path class="cls-2" d="m178.25,34.6c-3.91-.59-7.42-.88-10.55-.88-12.27,0-18.79,4.53-19.57,13.59l-.03.76c0,4.74,1.39,8.19,4.16,10.34-2.49-.12-4.99-.19-7.49-.22h0c-.25,0-.49,0-.72,0-.11,0-.22,0-.33,0-2.23-.04-3.63-.23-4.18-.55.04-.61.06-1.2.06-1.79.29-1.35.44-2.64.44-3.87,0-4.42-1.84-8.07-5.51-10.96-2.35-1.85-5.16-2.78-8.44-2.78s-7.02.92-11.22,2.78l.09,11.98c2.58-.96,4.82-1.44,6.71-1.44.68,0,1.32.07,1.93.21,2.24.47,3.37,1.83,3.38,4.1.01,2.27-2.05,3.4-6.17,3.4-2.42,0-5.94-.42-10.55-1.26l-.09,13.42h16c3.61,0,6.41-.64,8.38-1.93,1.65,1.01,4.12,1.62,7.38,1.84v.1c6.25.19,11.74.29,16.49.29s8.21-.09,10.46-.29c2.04-.33,3.9-1.19,5.6-2.59,1.7-1.4,2.82-4.14,3.37-8.22.41-3.93.62-8.8.62-14.62,0-3.48-.07-7.28-.21-11.4Zm-11.96,20.06c-4.1-.54-6.15-2.15-6.16-4.81,0-2.67,1.46-4.01,4.37-4.01.53,0,1.22.07,2.08.21l-.29,8.61Z"/>
  </g>
  <g>
    <path class="cls-1" d="m78.44,70.54l6.82-.13c1.88-.04,3.38-1.59,3.35-3.47l-.09-5.11-13.63.25.09,5.11c.02,1.89,1.57,3.38,3.46,3.35Z"/>
    <path class="cls-1" d="m83.84,15.47c-.33.21-.77.16-1.05-.11l-1.99-1.91-1.91,1.99c-.28.28-.7.34-1.04.15l-3.86-2.23.83,45.31,13.63-.25-.83-45.31-3.78,2.36Z"/>
    <path class="cls-1" d="m78.08,13.52l2.06-2.13c.33-.34.87-.35,1.22-.02l2.13,2.06,3.66-2.29s-2.64-4.47-2.64-4.47c-.01.01-.02.02-.04.03-1.18.59-2.47.94-3.79,1.02-1.32-.03-2.62-.33-3.83-.87-.01-.01-.02-.02-.04-.03l-2.5,4.55s3.77,2.15,3.77,2.15Z"/>
    <path class="cls-1" d="m80.64,5.99c1.04-.07,2.05-.34,2.98-.8l-3.09-5.19-2.9,5.3c.96.43,1.97.66,3.01.69Z"/>
  </g>
</svg>