<svg width="500" height="500" viewBox="0 0 500 500" fill="none" xmlns="http://www.w3.org/2000/svg">
<g clip-path="url(#clip0_217_1062)">
<mask id="mask0_217_1062" style="mask-type:luminance" maskUnits="userSpaceOnUse" x="0" y="0" width="500" height="500">
<path d="M500 0H0V500H500V0Z" fill="white"/>
</mask>
<g mask="url(#mask0_217_1062)">
<path d="M85.2914 289.867L13.0176 303.392L23.8311 361.174L96.1049 347.648L85.2914 289.867Z" fill="#F5F5F5"/>
<path d="M85.3099 289.885L84.9593 289.97L83.8971 290.171L79.9774 290.936L65.1803 293.772L13.0773 303.651L13.2791 303.354C16.4658 320.552 20.2049 340.267 24.1246 361.129L23.7953 360.896L96.0279 347.426L95.8473 347.703C92.6606 330.303 89.9837 315.888 88.1248 305.786C87.2113 300.741 86.489 296.779 86.0003 294.102C85.756 292.753 85.5754 291.722 85.448 291C85.3205 290.278 85.2674 289.938 85.2674 289.938C85.2674 289.938 85.3524 290.278 85.4798 291L86.0853 294.049C86.6058 296.757 87.36 300.698 88.3266 305.733C90.2493 315.857 92.9899 330.314 96.3041 347.756L96.3572 347.979L96.1235 348.032L23.8484 361.522L23.5722 361.575L23.5191 361.289C19.6313 340.426 15.9453 320.711 12.7373 303.503V303.258L12.9923 303.205L65.2972 293.539L80.0518 290.841L83.9502 290.14L84.9381 289.97L85.3099 289.885Z" fill="#E0E0E0"/>
<path d="M83.384 293.984L16.1846 306.56L25.6362 357.064L92.8356 344.488L83.384 293.984Z" fill="#EBEBEB"/>
<path d="M25.6113 357.082L43.2126 321.295L61.4195 338.217L69.3226 325.873L92.8088 344.516L25.6113 357.082Z" fill="#E0E0E0"/>
<path d="M63.2047 313.583C63.4006 314.63 63.2818 315.711 62.8632 316.691C62.4446 317.67 61.7451 318.503 60.8531 319.085C59.961 319.667 58.9165 319.971 57.8516 319.959C56.7867 319.948 55.7491 319.62 54.8701 319.019C53.9912 318.418 53.3102 317.569 52.9133 316.581C52.5165 315.593 52.4215 314.509 52.6405 313.467C52.8595 312.424 53.3826 311.47 54.1436 310.726C54.9047 309.981 55.8695 309.478 56.9162 309.281C57.6116 309.15 58.3259 309.158 59.0184 309.304C59.7109 309.449 60.3679 309.73 60.9519 310.129C61.5359 310.529 62.0354 311.039 62.422 311.632C62.8085 312.225 63.0745 312.888 63.2047 313.583Z" fill="#E0E0E0"/>
<path d="M193.576 47.7854L156.574 252.207L307.927 279.603L344.93 75.1819L193.576 47.7854Z" fill="#FAFAFA"/>
<path d="M307.924 279.613C307.924 279.613 307.978 279.273 308.084 278.635L308.594 275.757C309.04 273.229 309.709 269.489 310.569 264.635C312.322 254.905 314.871 240.692 318.101 222.698L344.657 75.1519L344.869 75.4493L193.553 48.0753L193.882 47.8416C180.073 124.1 167.251 194.739 156.82 252.249L156.64 251.984L266.614 272.018L297.132 277.605L305.163 279.092C306.979 279.421 307.924 279.613 307.924 279.613L305.205 279.145L297.206 277.722L266.688 272.294L156.533 252.472H156.31V252.249C166.71 194.718 179.488 124.079 193.276 47.8204V47.5442H193.563L344.976 74.9394L345.23 74.9926V75.2369C334.215 135.785 324.91 186.911 318.366 222.889L310.718 264.741C309.826 269.574 309.146 273.239 308.679 275.81C308.445 277.053 308.275 277.998 308.158 278.646L307.924 279.613Z" fill="#E0E0E0"/>
<path d="M270.625 81.0209L206.362 69.3887L196.229 125.373L260.491 137.005L270.625 81.0209Z" fill="#E0E0E0"/>
<path d="M321.879 90.2983L280.737 82.8513L279.415 90.1577L320.556 97.6046L321.879 90.2983Z" fill="#E0E0E0"/>
<path d="M312.393 158.183L194.969 136.928L193.646 144.234L311.071 165.489L312.393 158.183Z" fill="#E0E0E0"/>
<path d="M310.074 171.043L192.65 149.788L191.327 157.094L308.752 178.349L310.074 171.043Z" fill="#E0E0E0"/>
<path d="M307.749 183.903L190.324 162.648L189.002 169.954L306.426 191.209L307.749 183.903Z" fill="#E0E0E0"/>
<path d="M305.409 196.76L187.985 175.505L186.662 182.812L304.087 204.067L305.409 196.76Z" fill="#E0E0E0"/>
<path d="M303.084 209.61L185.659 188.355L184.337 195.661L301.761 216.916L303.084 209.61Z" fill="#E0E0E0"/>
<path d="M295.103 253.702L177.679 232.447L176.356 239.754L293.781 261.009L295.103 253.702Z" fill="#E0E0E0"/>
<path d="M247.801 212.889L183.34 201.22L182.017 208.527L246.478 220.195L247.801 212.889Z" fill="#E0E0E0"/>
<path d="M319.743 102.125L278.602 94.6785L277.28 101.985L318.421 109.432L319.743 102.125Z" fill="#E0E0E0"/>
<path d="M316.044 114.101L275.07 106.576L273.734 113.852L314.707 121.378L316.044 114.101Z" fill="#E0E0E0"/>
<path d="M299.687 122.904L274.319 118.312L272.996 125.619L298.365 130.211L299.687 122.904Z" fill="#E0E0E0"/>
<path d="M376.365 46.8432L363.31 47.3743L361.897 51.0284C361.494 51.9804 361.278 53.0009 361.26 54.0346C361.247 54.4916 361.361 54.9433 361.59 55.3391C361.819 55.735 362.153 56.0593 362.556 56.2759C363.736 56.6522 364.972 56.8211 366.21 56.7752V57.8374L354.058 58.2836V57.2213C355.293 57.0075 356.417 56.3778 357.245 55.4367C358.502 53.6949 359.494 51.7762 360.187 49.7431L372.116 19.7666H372.637L387.179 49.5094C388.595 52.3421 389.714 54.1125 390.536 54.8206C391.296 55.4059 392.232 55.7167 393.191 55.7023V56.7008L375.314 57.4231V56.414H376.057C377.104 56.4628 378.143 56.2123 379.053 55.6917C379.246 55.5441 379.398 55.3494 379.495 55.1263C379.592 54.9032 379.63 54.6589 379.605 54.417C379.588 54.0759 379.52 53.7393 379.403 53.4185C379.403 53.2591 379.053 52.5793 378.5 51.4108L376.365 46.8432ZM375.356 44.8674L369.344 32.3542L364.181 45.3136L375.356 44.8674Z" fill="#E0E0E0"/>
<path d="M401.086 124.027L341.38 143.969L357.325 191.706L417.031 171.764L401.086 124.027Z" fill="#F5F5F5"/>
<path d="M399.936 127.745L344.431 146.285L358.367 188.007L413.871 169.467L399.936 127.745Z" fill="#EBEBEB"/>
<path d="M358.37 188.026L369.098 155.617L386.519 167.833L391.767 156.435L413.872 169.49L358.37 188.026Z" fill="#E0E0E0"/>
<path d="M385.139 146.726C385.429 147.591 385.455 148.522 385.215 149.402C384.975 150.281 384.479 151.07 383.791 151.668C383.103 152.266 382.252 152.647 381.348 152.762C380.443 152.877 379.525 152.72 378.709 152.313C377.893 151.906 377.216 151.266 376.764 150.474C376.312 149.682 376.105 148.774 376.169 147.864C376.233 146.954 376.565 146.084 377.124 145.364C377.683 144.643 378.443 144.104 379.308 143.815C379.882 143.622 380.488 143.544 381.092 143.586C381.696 143.628 382.286 143.789 382.828 144.059C383.37 144.33 383.853 144.705 384.25 145.162C384.646 145.62 384.949 146.151 385.139 146.726Z" fill="#E0E0E0"/>
<path d="M402.743 68.5112L388.128 143.14L481.469 161.419L496.083 86.79L402.743 68.5112Z" fill="#F5F5F5"/>
<path d="M496.1 86.7941L495.643 86.7198L494.326 86.4861L489.249 85.5194L470.128 81.844L402.708 68.7678L403.005 68.566C398.66 90.7775 393.689 116.24 388.42 143.189L388.197 142.849L481.526 161.194L481.25 161.374C485.701 138.918 489.387 120.297 491.968 107.285C493.275 100.773 494.294 95.6638 494.995 92.1691C495.346 90.427 495.611 89.0992 495.803 88.175C495.994 87.2509 496.1 86.7941 496.1 86.7941C496.1 86.7941 496.026 87.2509 495.856 88.1432C495.686 89.0354 495.442 90.3739 495.112 92.0947C494.443 95.5789 493.466 100.678 492.223 107.179C489.695 120.244 486.073 138.929 481.717 161.47L481.664 161.704H481.441L388.049 143.422L387.772 143.369L387.826 143.093C393.137 116.155 398.119 90.6925 402.474 68.481L402.527 68.2261L402.771 68.2792L470.341 81.621L489.376 85.4238L494.401 86.4861L495.675 86.7516L496.1 86.7941Z" fill="#E0E0E0"/>
<path d="M405.05 73.8418L392.277 139.068L479.061 156.062L491.834 90.8366L405.05 73.8418Z" fill="#EBEBEB"/>
<path d="M392.277 139.078L430.528 104.47L444.337 133.512L459.729 122.443L479.062 156.074L392.277 139.078Z" fill="#E0E0E0"/>
<path d="M458.253 104.735C457.99 106.089 457.331 107.333 456.36 108.312C455.39 109.291 454.15 109.96 452.799 110.234C451.448 110.509 450.046 110.376 448.771 109.854C447.495 109.331 446.403 108.442 445.633 107.298C444.863 106.155 444.449 104.809 444.444 103.43C444.439 102.052 444.843 100.703 445.605 99.554C446.367 98.4051 447.453 97.5081 448.724 96.9763C449.996 96.4446 451.397 96.302 452.75 96.5666C453.648 96.7409 454.503 97.0906 455.266 97.5956C456.029 98.1006 456.684 98.7511 457.195 99.5098C457.707 100.269 458.063 101.121 458.244 102.017C458.426 102.914 458.429 103.838 458.253 104.735Z" fill="#E0E0E0"/>
<path d="M73.6055 57.1385L78.4281 113.416L100.257 119.333L142.598 114.415L136.639 51.0625L73.6055 57.1385Z" fill="#F5F5F5"/>
<path d="M85.0891 108.36L78.4395 113.416C80.967 115.608 83.9223 117.25 87.118 118.239C91.3902 119.427 95.8503 119.788 100.258 119.301C100.258 119.301 90.1773 117.591 85.0891 108.36Z" fill="#EBEBEB"/>
<path d="M131.541 71.7868C131.541 71.893 120.834 73.0084 107.609 74.2937C94.3836 75.579 83.6337 76.5351 83.6231 76.4182C83.6125 76.3014 94.3305 75.1648 107.566 73.9113C120.802 72.6579 131.531 71.6487 131.541 71.7868Z" fill="#E0E0E0"/>
<path d="M132.168 80.4122C132.168 80.5184 121.461 81.6444 108.236 82.9297C95.0105 84.215 84.2606 85.1604 84.25 85.0542C84.2393 84.948 94.9574 83.822 108.193 82.5367C121.429 81.2513 132.157 80.2847 132.168 80.4122Z" fill="#E0E0E0"/>
<path d="M133.177 88.0499C133.177 88.1561 122.47 89.2821 109.245 90.5568C96.0194 91.8315 85.2801 92.7981 85.2695 92.6812C85.2589 92.5644 95.9663 91.4597 109.202 90.1744C122.438 88.889 133.167 87.9436 133.177 88.0499Z" fill="#E0E0E0"/>
<path d="M133.846 95.4326C133.846 95.5282 123.139 96.6542 109.903 97.9395C96.667 99.2248 85.9384 100.181 85.9277 100.064C85.9171 99.9471 96.6352 98.8318 109.871 97.5571C123.107 96.2824 133.835 95.3264 133.846 95.4326Z" fill="#E0E0E0"/>
<path d="M500 480.388C500 480.536 388.039 480.664 249.969 480.664C111.898 480.664 -0.0839844 480.536 -0.0839844 480.388C-0.0839844 480.239 111.845 480.101 249.969 480.101C388.092 480.101 500 480.228 500 480.388Z" fill="#263238"/>
<path d="M91.1963 185.269L126.867 389.528L277.281 365.914L284.253 349.069L243.557 160.2L102.568 168.61L91.1963 185.269Z" fill="#E0E0E0"/>
<path opacity="0.3" d="M126.867 389.528L137.553 373.156L101.882 168.889L91.1963 185.269L126.867 389.528Z" fill="black"/>
<path d="M101.882 168.889L137.552 373.156L284.252 349.068L247.186 148.169L101.882 168.889Z" fill="#FAFAFA"/>
<path d="M101.882 168.898L247.161 148H247.338V148.169C257.737 204.272 270.614 273.811 284.472 349.026L284.515 349.255L284.286 349.297L281.867 349.695L137.586 373.385H137.383V373.182C116.401 252.54 102.195 170.692 101.882 168.898C102.195 170.7 116.57 252.515 137.755 373.122L137.519 372.962L281.79 349.272L284.21 348.874L284.024 349.136C270.165 273.912 257.356 204.374 247.008 148.228L247.212 148.372L101.882 168.898Z" fill="#263238"/>
<path d="M219.502 265.625C221.321 251.938 211.7 239.367 198.013 237.548C184.325 235.729 171.754 245.35 169.935 259.038C168.116 272.725 177.738 285.296 191.425 287.115C205.113 288.934 217.683 279.313 219.502 265.625Z" fill="#406AB3"/>
<path d="M183.248 268.886L182.114 261.686L207.048 257.735L208.114 264.504C208.114 264.504 206.591 270.325 196.506 271.915C186.421 273.506 183.248 268.886 183.248 268.886Z" fill="white"/>
<path d="M178.181 261.729L195.974 264.893L211.406 256.212L193.588 253.395L178.181 261.729Z" fill="white"/>
<path d="M227.963 191.888L139.555 205.859C138.47 206.03 137.73 207.049 137.901 208.133L138.2 210.022C138.371 211.107 139.389 211.847 140.474 211.675L228.883 197.705C229.967 197.533 230.707 196.515 230.536 195.43L230.238 193.542C230.066 192.457 229.048 191.717 227.963 191.888Z" fill="#E0E0E0"/>
<path d="M213.975 206.594L157.908 215.454C156.824 215.626 156.083 216.644 156.255 217.728L156.553 219.617C156.725 220.702 157.743 221.442 158.827 221.271L214.894 212.411C215.979 212.239 216.719 211.221 216.548 210.136L216.25 208.248C216.078 207.163 215.06 206.423 213.975 206.594Z" fill="#E0E0E0"/>
<path d="M234.171 331.922L178.104 340.783C177.02 340.954 176.279 341.972 176.451 343.057L176.749 344.945C176.921 346.03 177.939 346.77 179.023 346.599L235.091 337.739C236.175 337.568 236.915 336.549 236.744 335.465L236.446 333.576C236.274 332.491 235.256 331.751 234.171 331.922Z" fill="#E0E0E0"/>
<path d="M276.697 354.746L275.987 354.881L273.888 355.245L265.773 356.598L235.646 361.539L133.864 378.08L133.644 378.122V377.902C132.222 369.823 130.724 361.362 129.201 352.74C121.012 306.418 113.634 264.504 108.295 234.138C105.647 218.96 103.507 206.683 102.018 198.189C101.29 193.958 100.723 190.65 100.325 188.408C100.139 187.291 99.995 186.445 99.8935 185.87C99.792 185.295 99.7666 185.024 99.7666 185.024C99.7666 185.024 99.8343 185.32 99.9443 185.87C100.055 186.42 100.207 187.3 100.41 188.408C100.816 190.65 101.408 193.942 102.178 198.172C103.693 206.633 105.884 218.934 108.592 234.096C113.964 264.453 121.393 306.367 129.591 352.681C131.114 361.294 132.603 369.763 134.033 377.843L133.771 377.657L235.587 361.26L265.732 356.455L273.854 355.177L275.961 354.856L276.697 354.746Z" fill="#263238"/>
<path d="M265.538 362.428L264.869 362.563L262.89 362.91L255.224 364.213L226.729 368.968L130.023 384.976H129.803V384.764L124.244 354.585C115.961 308.897 108.465 267.567 103.033 237.633C100.343 222.674 98.1595 210.558 96.6535 202.182C95.9174 198.003 95.3336 194.754 94.9613 192.537C94.7752 191.446 94.6229 190.608 94.5298 189.999C94.4368 189.39 94.3945 189.153 94.3945 189.153C94.3945 189.153 94.4622 189.432 94.5721 189.999L95.0544 192.537C95.4605 194.745 96.0697 197.986 96.8481 202.157L103.363 237.582C108.829 267.516 116.376 308.846 124.709 354.509C126.588 364.856 128.432 374.984 130.2 384.722L129.947 384.544L226.661 368.689L255.173 364.061L262.847 362.834L264.836 362.529L265.538 362.428Z" fill="#263238"/>
<path d="M105.426 255.392L102.118 260.062L110.147 308.195L114.928 309.819L105.426 255.392Z" fill="#263238"/>
<path d="M128.338 251.383L105.435 255.385L114.943 309.809L137.846 305.807L128.338 251.383Z" fill="#263238"/>
<path d="M129.068 249.273L127.576 249.533C126.724 249.682 126.154 250.493 126.303 251.344L135.924 306.47C136.073 307.322 136.883 307.891 137.735 307.743L139.227 307.482C140.079 307.334 140.648 306.523 140.5 305.671L130.879 250.546C130.73 249.694 129.919 249.124 129.068 249.273Z" fill="#263238"/>
<path d="M101.468 294.768C98.9298 294.758 96.4814 293.829 94.5747 292.154C92.6681 290.479 91.432 288.171 91.0949 285.656C90.8039 283.507 91.186 281.32 92.1887 279.397C93.1913 277.474 94.7652 275.91 96.6938 274.918C98.6224 273.926 100.811 273.557 102.958 273.86C105.106 274.163 107.106 275.124 108.685 276.611L122.983 268.489C123.257 268.334 123.564 268.246 123.878 268.235C124.193 268.223 124.505 268.287 124.79 268.421C125.074 268.556 125.322 268.757 125.513 269.007C125.704 269.257 125.831 269.55 125.885 269.859L129.27 289.226C129.325 289.534 129.306 289.851 129.214 290.15C129.121 290.45 128.958 290.722 128.739 290.945C128.519 291.168 128.249 291.335 127.951 291.432C127.653 291.529 127.336 291.553 127.027 291.502L110.884 288.964C110.01 290.713 108.667 292.184 107.003 293.212C105.34 294.24 103.423 294.785 101.468 294.785V294.768ZM101.468 275.469C101.043 275.466 100.618 275.497 100.199 275.562C97.9225 275.932 95.8769 277.166 94.4883 279.007C93.0997 280.848 92.4751 283.154 92.7447 285.444C93.001 287.359 93.8806 289.137 95.2477 290.502C96.6148 291.868 98.3934 292.746 100.309 293C102.224 293.254 104.17 292.87 105.846 291.908C107.522 290.947 108.835 289.46 109.581 287.678L109.835 287.069L127.298 289.886C127.34 289.895 127.383 289.892 127.423 289.879C127.463 289.866 127.499 289.842 127.527 289.81C127.557 289.781 127.579 289.745 127.592 289.705C127.606 289.665 127.609 289.623 127.603 289.581L124.219 270.206C124.21 270.164 124.192 270.125 124.166 270.091C124.139 270.057 124.105 270.03 124.066 270.012C124.028 269.992 123.986 269.982 123.944 269.982C123.901 269.982 123.859 269.992 123.821 270.012L108.38 278.743L107.923 278.261C107.096 277.387 106.099 276.692 104.993 276.217C103.887 275.743 102.696 275.5 101.493 275.503L101.468 275.469Z" fill="#455A64"/>
<path d="M135.818 305.75C135.762 305.573 135.722 305.392 135.7 305.208C135.624 304.802 135.531 304.286 135.404 303.651C135.15 302.238 134.794 300.267 134.355 297.898C133.508 292.999 132.29 286.315 130.97 278.929C129.65 271.543 128.525 264.842 127.679 259.927C127.281 257.541 126.96 255.586 126.731 254.165C126.63 253.522 126.554 252.997 126.495 252.591C126.455 252.411 126.438 252.226 126.444 252.041C126.501 252.215 126.547 252.394 126.579 252.574C126.664 252.98 126.774 253.496 126.901 254.131C127.171 255.544 127.544 257.515 127.992 259.876C128.897 264.724 130.107 271.433 131.376 278.845C132.645 286.256 133.83 292.982 134.625 297.847C135.031 300.284 135.336 302.255 135.539 303.618C135.632 304.303 135.717 304.827 135.751 305.2C135.796 305.38 135.818 305.564 135.818 305.75Z" fill="#455A64"/>
<path d="M114.472 310.005C114.422 309.825 114.382 309.641 114.353 309.455C114.277 309.058 114.184 308.542 114.066 307.899C113.803 306.486 113.448 304.514 113.008 302.154C112.162 297.247 110.944 290.563 109.624 283.177C108.304 275.79 107.187 269.089 106.333 264.182C105.935 261.788 105.613 259.833 105.385 258.421C105.283 257.769 105.207 257.253 105.148 256.847C105.108 256.664 105.091 256.476 105.097 256.288C105.161 256.464 105.21 256.645 105.241 256.83C105.317 257.236 105.427 257.752 105.554 258.387C105.825 259.8 106.197 261.771 106.646 264.123C107.551 268.98 108.761 275.68 110.03 283.1C111.299 290.52 112.484 297.23 113.287 302.095C113.685 304.531 113.998 306.503 114.193 307.873C114.286 308.559 114.37 309.083 114.404 309.447C114.449 309.63 114.472 309.817 114.472 310.005Z" fill="#455A64"/>
<path d="M211.388 256.212C211.02 256.494 210.63 256.746 210.221 256.965L206.955 258.886C204.18 260.494 200.33 262.685 196.066 265.088L195.99 265.13H195.914H195.736C190.871 264.284 186.429 263.438 183.299 262.854L179.534 262.118C179.068 262.046 178.609 261.933 178.163 261.78C178.635 261.801 179.104 261.854 179.568 261.94L183.35 262.541C186.548 263.066 190.964 263.827 195.821 264.69H195.99H195.838C200.11 262.296 203.985 260.147 206.837 258.607L210.179 256.813C210.562 256.576 210.967 256.375 211.388 256.212Z" fill="#263238"/>
<path d="M197.036 337.93H287.603V385.455H197.036C192.063 385.455 187.294 383.479 183.778 379.963C180.262 376.447 178.287 371.679 178.287 366.706V356.668C178.287 351.695 180.262 346.927 183.778 343.411C187.294 339.895 192.063 337.919 197.036 337.919V337.93Z" fill="#406AB3"/>
<path d="M263.926 337.93H454.971C455.796 337.93 456.588 338.258 457.172 338.841C457.755 339.425 458.083 340.217 458.083 341.042V342.71C458.083 343.535 457.755 344.327 457.172 344.911C456.588 345.494 455.796 345.822 454.971 345.822H263.926V337.93Z" fill="#406AB3"/>
<path d="M263.926 377.573H454.971C455.38 377.573 455.784 377.653 456.162 377.81C456.54 377.966 456.883 378.195 457.172 378.484C457.461 378.773 457.69 379.116 457.846 379.494C458.003 379.872 458.083 380.276 458.083 380.685V382.353C458.083 383.178 457.755 383.97 457.172 384.554C456.588 385.137 455.796 385.465 454.971 385.465H263.926V377.573Z" fill="#406AB3"/>
<path d="M452.273 377.573H285.596C283.511 377.573 281.447 377.162 279.52 376.364C277.594 375.565 275.844 374.395 274.371 372.921C272.897 371.446 271.728 369.695 270.931 367.769C270.134 365.842 269.725 363.777 269.726 361.692C269.726 357.483 271.398 353.447 274.374 350.47C277.35 347.494 281.387 345.822 285.596 345.822H452.273C450.064 350.823 448.924 356.23 448.924 361.697C448.924 367.164 450.064 372.571 452.273 377.573Z" fill="#F5F5F5"/>
<path opacity="0.3" d="M269.725 385.465H197.407C192.336 385.465 187.473 383.451 183.887 379.865C180.302 376.279 178.287 371.416 178.287 366.345V356.901C178.287 351.87 180.286 347.044 183.844 343.486C187.402 339.929 192.227 337.93 197.259 337.93H271.52C254.323 348.361 255.608 373.324 269.725 385.465Z" fill="black"/>
<path d="M432.026 363.169C432.026 363.328 397.811 363.456 355.619 363.456C313.427 363.456 279.212 363.328 279.212 363.169C279.212 363.009 313.416 362.882 355.619 362.882C397.822 362.882 432.026 363.009 432.026 363.169Z" fill="#263238"/>
<path d="M447.748 370.222C447.748 370.381 413.533 370.509 371.341 370.509C329.148 370.509 294.933 370.381 294.933 370.222C294.933 370.063 329.138 369.946 371.341 369.946C413.544 369.946 447.748 370.073 447.748 370.222Z" fill="#263238"/>
<path d="M443.116 353.162C443.116 353.322 408.901 353.449 366.708 353.449C324.516 353.449 290.291 353.322 290.291 353.162C290.291 353.003 324.495 352.876 366.708 352.876C408.922 352.876 443.116 353.024 443.116 353.162Z" fill="#263238"/>
<path d="M261.355 382.13C261.355 382.289 245.336 382.417 225.589 382.417C205.842 382.417 189.823 382.289 189.823 382.13C189.823 381.97 205.831 381.843 225.589 381.843C245.347 381.843 261.355 381.97 261.355 382.13Z" fill="#263238"/>
<path d="M261.355 341.881C261.355 342.041 245.336 342.168 225.589 342.168C205.842 342.168 189.823 342.041 189.823 341.881C189.823 341.722 205.831 341.595 225.589 341.595C245.347 341.595 261.355 341.722 261.355 341.881Z" fill="#263238"/>
<path d="M157.054 418.82H279.095V480.026H157.054C152.082 480.026 147.313 478.051 143.797 474.535C140.281 471.019 138.305 466.25 138.305 461.278V437.568C138.305 432.596 140.281 427.827 143.797 424.311C147.313 420.795 152.082 418.82 157.054 418.82Z" fill="#406AB3"/>
<path d="M248.598 418.82H495.496C496.321 418.82 497.113 419.148 497.697 419.731C498.28 420.315 498.608 421.107 498.608 421.932V425.873C498.608 426.699 498.28 427.49 497.697 428.074C497.113 428.658 496.321 428.986 495.496 428.986H248.598V418.82Z" fill="#406AB3"/>
<path d="M248.598 469.871H495.496C496.321 469.871 497.113 470.199 497.697 470.783C498.28 471.367 498.608 472.158 498.608 472.984V476.925C498.608 477.75 498.28 478.542 497.697 479.125C497.113 479.709 496.321 480.037 495.496 480.037H248.598V469.871Z" fill="#406AB3"/>
<path d="M491.15 469.871H276.513C271.092 469.868 265.893 467.713 262.061 463.878C258.228 460.044 256.075 454.844 256.075 449.423C256.075 446.739 256.604 444.081 257.631 441.602C258.658 439.122 260.164 436.869 262.061 434.971C263.959 433.074 266.212 431.568 268.692 430.541C271.171 429.514 273.829 428.985 276.513 428.985H491.15C488.303 435.425 486.832 442.388 486.832 449.428C486.832 456.469 488.303 463.432 491.15 469.871Z" fill="#F5F5F5"/>
<path opacity="0.3" d="M256.054 480.026H156.809C154.379 480.026 151.973 479.548 149.729 478.618C147.484 477.688 145.445 476.324 143.728 474.606C142.01 472.887 140.648 470.848 139.72 468.603C138.791 466.358 138.314 463.952 138.315 461.522V438.004C138.315 432.933 140.329 428.07 143.915 424.484C147.501 420.898 152.364 418.884 157.435 418.884H258.349C236.222 432.247 237.879 464.401 256.054 480.026Z" fill="black"/>
<path d="M465.073 451.324C465.073 451.484 421.011 451.611 366.677 451.611C312.344 451.611 268.271 451.484 268.271 451.324C268.271 451.165 312.322 451.038 366.677 451.038C421.032 451.038 465.073 451.165 465.073 451.324Z" fill="#263238"/>
<path d="M485.33 460.407C485.33 460.566 441.268 460.693 386.923 460.693C332.579 460.693 288.517 460.566 288.517 460.407C288.517 460.247 332.568 460.13 386.923 460.13C441.278 460.13 485.33 460.311 485.33 460.407Z" fill="#263238"/>
<path d="M479.403 442.89C479.403 443.05 435.351 443.177 381.007 443.177C326.662 443.177 282.601 443.05 282.601 442.89C282.601 442.731 326.652 442.603 381.007 442.603C435.362 442.603 479.403 442.731 479.403 442.89Z" fill="#263238"/>
<path d="M245.272 475.735C245.272 475.894 224.654 476.022 199.213 476.022C173.773 476.022 153.155 475.894 153.155 475.735C153.155 475.575 173.773 475.459 199.213 475.459C224.654 475.459 245.272 475.586 245.272 475.735Z" fill="#263238"/>
<path d="M245.272 423.908C245.272 424.057 224.654 424.184 199.213 424.184C173.773 424.184 153.155 424.057 153.155 423.908C153.155 423.759 173.773 423.621 199.213 423.621C224.654 423.621 245.272 423.748 245.272 423.908Z" fill="#263238"/>
<path d="M215.094 383.999H315.646V419.053H215.094C211.432 419.053 207.919 417.599 205.33 415.009C202.74 412.419 201.285 408.907 201.285 405.244V397.809C201.285 394.146 202.74 390.634 205.33 388.044C207.919 385.454 211.432 383.999 215.094 383.999Z" fill="#455A64"/>
<path d="M290.875 383.999H490.747C491.612 383.999 492.442 384.343 493.053 384.955C493.665 385.566 494.008 386.396 494.008 387.26V389.003C494.008 389.867 493.665 390.697 493.053 391.309C492.442 391.92 491.612 392.264 490.747 392.264H290.875V384.01V383.999Z" fill="#455A64"/>
<path d="M290.875 410.789H490.747C491.612 410.789 492.442 411.133 493.053 411.744C493.665 412.356 494.008 413.185 494.008 414.05V415.792C494.008 416.657 493.665 417.487 493.053 418.098C492.442 418.71 491.612 419.053 490.747 419.053H290.875V410.8V410.789Z" fill="#455A64"/>
<path d="M487.9 410.789H306.256C303.798 410.789 301.441 409.814 299.702 408.077C297.963 406.34 296.985 403.984 296.982 401.526C296.982 399.067 297.959 396.708 299.699 394.969C301.438 393.23 303.796 392.253 306.256 392.253H487.9C483.254 398.435 483.254 404.614 487.9 410.789Z" fill="#F5F5F5"/>
<path opacity="0.3" d="M296.929 419.043H215.136C213.31 419.043 211.501 418.683 209.813 417.983C208.125 417.284 206.592 416.259 205.301 414.966C204.009 413.674 202.985 412.14 202.287 410.452C201.589 408.764 201.23 406.954 201.232 405.127V398.202C201.23 396.337 201.596 394.49 202.309 392.767C203.021 391.044 204.067 389.479 205.385 388.16C206.702 386.841 208.267 385.795 209.99 385.081C211.712 384.367 213.559 383.999 215.423 383.999H298.82C280.815 391.69 282.164 410.099 296.929 419.043Z" fill="black"/>
<path d="M466.75 400.06C466.75 400.22 430.952 400.347 386.806 400.347C342.659 400.347 306.861 400.22 306.861 400.06C306.861 399.901 342.648 399.784 386.806 399.784C430.963 399.784 466.75 399.912 466.75 400.06Z" fill="#263238"/>
<path d="M483.204 405.074C483.204 405.234 447.407 405.361 403.26 405.361C359.113 405.361 323.315 405.234 323.315 405.074C323.315 404.915 359.102 404.787 403.26 404.787C447.417 404.787 483.204 404.894 483.204 405.074Z" fill="#263238"/>
<path d="M288.199 415.559C288.199 415.718 271.447 415.846 250.776 415.846C230.104 415.846 213.353 415.718 213.353 415.559C213.353 415.399 230.104 415.272 250.776 415.272C271.447 415.272 288.199 415.399 288.199 415.559Z" fill="#263238"/>
<path d="M288.199 388.132C288.199 388.291 271.447 388.408 250.776 388.408C230.104 388.408 213.353 388.291 213.353 388.132C213.353 387.972 230.104 387.845 250.776 387.845C271.447 387.845 288.199 387.972 288.199 388.132Z" fill="#263238"/>
<path d="M491.618 383.999C491.618 384.159 430.146 384.286 354.344 384.286C278.542 384.286 217.028 384.159 217.028 383.999C217.028 383.84 278.478 383.713 354.312 383.713C430.146 383.713 491.618 383.829 491.618 383.999Z" fill="#263238"/>
<path d="M381.39 352.642V371.677L387.986 367.449L395.337 371.677V352.642H381.39Z" fill="#406AB3"/>
<path d="M448.427 163.701L415.21 191.372L364.69 291.18L396.185 305.415L445.325 207.529L448.427 163.701Z" fill="#406AB3"/>
<g opacity="0.7">
<path d="M445.325 207.497C444.94 207.592 444.539 207.597 444.152 207.511C443.765 207.425 443.403 207.251 443.094 207.002C442.786 206.753 442.538 206.436 442.372 206.076C442.207 205.716 442.127 205.323 442.139 204.926C441.091 206.146 439.687 207.007 438.125 207.387C436.562 207.767 434.919 207.649 433.428 207.047C431.936 206.446 430.672 205.392 429.811 204.034C428.95 202.676 428.536 201.082 428.627 199.477C427.227 200.231 425.652 200.598 424.064 200.543C422.475 200.487 420.929 200.01 419.586 199.16C418.242 198.311 417.147 197.119 416.416 195.708C415.685 194.296 415.343 192.715 415.423 191.128L448.353 163.669L445.325 207.497Z" fill="white"/>
</g>
<path d="M435.063 174.833C435.063 174.833 435.573 183.097 447.152 181.652L448.426 163.701L435.063 174.833Z" fill="#406AB3"/>
<path opacity="0.3" d="M428.669 199.509L379.965 297.543L364.69 291.17L415.21 191.319L415.465 191.106C415.389 192.437 415.622 193.768 416.145 194.994C416.842 196.604 417.976 197.988 419.417 198.988C421.186 200.197 423.334 200.722 425.461 200.465C426.58 200.344 427.667 200.02 428.669 199.509Z" fill="black"/>
<path opacity="0.3" d="M442.223 204.958L392.191 303.588L396.228 305.415L445.325 207.497C444.658 207.618 443.971 207.487 443.396 207.13C442.821 206.773 442.399 206.214 442.212 205.564C442.196 205.362 442.2 205.159 442.223 204.958Z" fill="black"/>
<path d="M428.414 189.991C428.31 190.113 428.25 190.266 428.244 190.427C428.246 190.659 428.334 190.882 428.491 191.053C428.648 191.223 428.863 191.33 429.094 191.351C429.847 191.384 430.592 191.176 431.218 190.756C431.614 190.523 431.93 190.175 432.121 189.757C432.227 189.531 432.273 189.282 432.257 189.033C432.24 188.784 432.16 188.544 432.026 188.334C431.85 188.117 431.631 187.939 431.382 187.813C431.133 187.686 430.86 187.614 430.581 187.601C429.966 187.547 429.347 187.583 428.743 187.707C427.391 187.932 426.1 188.435 424.951 189.184C424.644 189.372 424.381 189.625 424.18 189.923C423.978 190.222 423.843 190.56 423.783 190.915C423.767 191.287 423.843 191.657 424.004 191.992C424.165 192.328 424.406 192.618 424.707 192.838C425.405 193.239 426.176 193.497 426.975 193.595C427.774 193.694 428.585 193.631 429.359 193.412C430.896 193.088 432.315 192.348 433.46 191.273C434.604 190.198 435.431 188.828 435.85 187.314C435.921 186.979 435.914 186.633 435.829 186.301C435.745 185.969 435.584 185.662 435.361 185.402C434.91 184.92 434.349 184.555 433.725 184.34C432.603 183.929 431.424 183.692 430.23 183.639C428.49 183.547 426.748 183.807 425.11 184.404C424.537 184.616 424.048 184.818 423.804 184.956C423.559 185.094 423.358 185.168 423.358 185.168C423.901 184.824 424.477 184.536 425.078 184.308C426.721 183.68 428.474 183.394 430.23 183.469C431.448 183.51 432.652 183.739 433.8 184.149C434.456 184.374 435.046 184.757 435.52 185.264C435.77 185.551 435.95 185.893 436.046 186.261C436.142 186.63 436.151 187.016 436.073 187.389C435.524 189.36 434.31 191.081 432.638 192.26C430.965 193.439 428.936 194.004 426.895 193.858C426.059 193.814 425.252 193.534 424.569 193.05C424.227 192.814 423.95 192.496 423.765 192.125C423.579 191.753 423.49 191.341 423.506 190.926C423.572 190.538 423.72 190.169 423.939 189.843C424.159 189.517 424.446 189.241 424.781 189.035C425.959 188.271 427.283 187.761 428.669 187.537C429.296 187.42 429.936 187.391 430.57 187.452C430.872 187.47 431.167 187.553 431.434 187.694C431.701 187.835 431.936 188.031 432.121 188.27C432.268 188.505 432.354 188.773 432.371 189.049C432.387 189.326 432.334 189.602 432.217 189.853C432.011 190.298 431.674 190.669 431.25 190.915C430.604 191.332 429.84 191.529 429.073 191.478C428.824 191.454 428.593 191.337 428.428 191.149C428.262 190.962 428.174 190.719 428.18 190.469C428.233 190.076 428.414 189.98 428.414 189.991Z" fill="white"/>
<path d="M446.238 189.439C446.238 189.439 445.75 189.364 444.879 189.439C443.638 189.52 442.425 189.845 441.309 190.395C439.668 191.236 438.129 192.263 436.72 193.454C435.006 194.962 433.054 196.176 430.942 197.044C428.764 197.793 426.414 197.882 424.186 197.299C422.372 196.82 420.704 195.901 419.332 194.622C418.402 193.74 417.629 192.706 417.048 191.563C416.827 191.163 416.642 190.743 416.495 190.31C416.556 190.408 416.609 190.511 416.655 190.618C416.75 190.83 416.91 191.138 417.122 191.521C417.744 192.595 418.529 193.566 419.448 194.399C420.811 195.639 422.455 196.529 424.239 196.991C426.429 197.541 428.731 197.446 430.868 196.715C432.952 195.858 434.882 194.667 436.582 193.188C438.005 191.991 439.567 190.971 441.235 190.15C442.37 189.599 443.607 189.292 444.868 189.247C445.331 189.253 445.791 189.317 446.238 189.439Z" fill="white"/>
<path d="M446.047 199.392C445.438 198.774 444.627 198.397 443.763 198.33C441.664 198.311 439.575 198.619 437.57 199.243C435.539 199.791 433.562 200.523 431.664 201.431C430.931 201.782 430.358 202.09 429.954 202.292C429.756 202.418 429.546 202.525 429.327 202.61C429.512 202.466 429.708 202.334 429.911 202.217C430.294 201.984 430.867 201.644 431.59 201.283C433.476 200.319 435.46 199.557 437.506 199.009C438.631 198.701 439.773 198.46 440.927 198.287C441.869 198.115 442.831 198.076 443.784 198.17C444.435 198.24 445.053 198.49 445.569 198.893C445.751 199.035 445.912 199.203 446.047 199.392Z" fill="white"/>
<path d="M432.26 206.435C432.583 206.099 432.939 205.796 433.322 205.532C434.269 204.836 435.357 204.358 436.509 204.13C437.086 204.012 437.682 204.024 438.253 204.166C438.825 204.307 439.358 204.574 439.813 204.948C440.084 205.177 440.31 205.455 440.482 205.765C440.546 205.877 440.589 206 440.61 206.127C440.364 205.729 440.06 205.371 439.707 205.064C439.257 204.726 438.74 204.487 438.19 204.364C437.641 204.241 437.071 204.237 436.52 204.353C435.413 204.585 434.363 205.033 433.429 205.67C433.054 205.947 432.664 206.203 432.26 206.435Z" fill="white"/>
<path d="M447.109 183.437C447.062 183.489 447.008 183.536 446.95 183.575C446.844 183.65 446.684 183.766 446.461 183.905C446.202 184.088 445.91 184.218 445.601 184.287C445.183 184.361 444.753 184.336 444.347 184.213C443.444 184.011 442.435 183.554 441.299 183.15C440.066 182.732 438.801 182.416 437.517 182.205C435.164 181.863 432.788 181.704 430.411 181.727H428.286C428.021 181.754 427.754 181.754 427.489 181.727L428.286 181.663L430.411 181.589C432.798 181.514 435.187 181.652 437.549 182.003C438.851 182.209 440.132 182.536 441.373 182.98C442.52 183.384 443.498 183.851 444.39 184.043C444.723 184.163 445.078 184.205 445.43 184.167C445.782 184.128 446.12 184.009 446.419 183.82C446.642 183.681 446.873 183.553 447.109 183.437Z" fill="white"/>
<path d="M482.312 273.643V360.651C482.333 360.818 482.415 360.972 482.542 361.083C482.668 361.195 482.83 361.256 482.999 361.256C483.167 361.256 483.329 361.195 483.456 361.083C483.582 360.972 483.663 360.818 483.684 360.651V273.643C483.663 273.476 483.582 273.322 483.456 273.211C483.329 273.099 483.167 273.038 482.999 273.038C482.83 273.038 482.668 273.099 482.542 273.211C482.415 273.322 482.333 273.476 482.312 273.643Z" fill="#406AB3"/>
<path d="M487.9 341.478C487.9 342.448 487.612 343.397 487.073 344.204C486.534 345.011 485.767 345.64 484.871 346.012C483.974 346.383 482.987 346.48 482.035 346.291C481.083 346.102 480.209 345.634 479.522 344.948C478.836 344.261 478.369 343.387 478.179 342.435C477.99 341.483 478.087 340.496 478.458 339.6C478.83 338.703 479.459 337.936 480.266 337.397C481.073 336.858 482.022 336.57 482.993 336.57C484.294 336.57 485.542 337.087 486.463 338.007C487.383 338.928 487.9 340.176 487.9 341.478Z" fill="#406AB3"/>
<path d="M481.634 344.016C481.634 344.016 478.054 347.596 476.981 358.081C475.908 368.565 475.675 373.802 475.675 373.802L485.32 374.397V366.897C485.32 367.248 487.232 372.495 487.232 372.495L494.859 369.988C494.859 369.988 492.15 342.115 481.634 344.016Z" fill="#406AB3"/>
<path d="M431.463 280.76H267.665V339.81H431.463V280.76Z" fill="#263238"/>
<path d="M488.994 270.605H208.827V280.77H488.994V270.605Z" fill="#263238"/>
<path opacity="0.3" d="M267.665 323.058C267.665 323.058 317.42 305.213 349.564 298.627C381.707 292.041 431.463 294.229 431.463 294.229V280.792H267.665V323.058Z" fill="black"/>
<path opacity="0.3" d="M310.165 270.605H208.827V280.77H310.165V270.605Z" fill="black"/>
<path d="M486.965 280.792C486.965 280.951 424.665 281.078 347.811 281.078C270.958 281.078 208.657 280.951 208.657 280.792C208.657 280.632 270.937 280.516 347.811 280.516C424.686 280.516 486.965 280.611 486.965 280.792Z" fill="#455A64"/>
<path d="M310.006 280.845C309.624 277.414 309.624 273.951 310.006 270.52C310.374 273.952 310.374 277.413 310.006 280.845Z" fill="#455A64"/>
<path d="M333.366 339.821C333.217 339.821 333.09 328.295 333.09 314.082C333.09 299.87 333.217 288.355 333.366 288.355C333.514 288.355 333.653 299.87 333.653 314.082C333.653 328.295 333.525 339.821 333.366 339.821Z" fill="#455A64"/>
<path d="M110.635 422.22L127.432 415.437L140.259 381.929L157.359 390.74C157.359 390.74 155.711 394.046 152.177 402.241C150.803 405.395 146.285 414.215 144.447 418.507C142.746 422.475 139.944 425.872 136.373 428.298C132.802 430.724 128.612 432.077 124.296 432.196L108.532 432.604L110.635 422.22Z" fill="#FFBF9D"/>
<path d="M102.289 415.74L99.7886 413.069C99.3026 412.75 98.7306 412.588 98.1497 412.605L90.1161 412.851C89.3661 412.923 88.642 413.163 87.9975 413.554C87.353 413.944 86.8046 414.474 86.393 415.106L83.4656 420.079C83.4656 420.079 81.5046 423.48 81.7509 424.314C81.8606 424.66 82.0946 424.953 82.4077 425.137C82.7209 425.321 83.091 425.382 83.4467 425.309C83.4467 425.309 83.7309 426.881 84.2519 427.203C84.5535 427.355 84.8828 427.444 85.2198 427.466C85.5569 427.487 85.8947 427.439 86.213 427.327C86.3512 427.625 86.576 427.875 86.8581 428.044C87.1403 428.213 87.4667 428.293 87.795 428.274C87.9359 428.261 88.0754 428.235 88.2119 428.198C89.1592 427.904 89.595 426.057 89.595 426.057L93.6687 425.309C93.6687 425.309 99.5234 429.221 101.588 431.779C103.653 434.337 109.053 432.385 109.053 432.385L111.071 422.722L102.289 415.74Z" fill="#FFBF9D"/>
<path d="M96.3687 416.887C95.7972 417.064 95.2045 417.162 94.6066 417.18C93.4982 417.304 91.935 417.351 90.1635 417.578L90.3529 417.436C90.0484 418.09 89.7003 418.723 89.3108 419.331C88.241 421.028 86.9401 422.568 85.4456 423.907C84.8585 424.497 84.1764 424.983 83.4277 425.347C83.4277 425.28 84.1382 424.712 85.1993 423.641C86.5925 422.257 87.8284 420.722 88.8845 419.066C89.2729 418.431 89.6235 417.806 89.9171 417.171L89.974 417.048H90.1066C91.9161 416.849 93.4792 416.868 94.5876 416.83C95.1817 416.787 95.7786 416.806 96.3687 416.887Z" fill="#FF9A6C"/>
<path d="M96.5478 420.724C96.0737 420.955 95.5586 421.09 95.032 421.121C93.7236 421.302 92.3938 421.258 91.1005 420.989L91.3942 420.828C91.2238 421.324 91.0277 421.811 90.8068 422.287C90.0743 423.798 89.0468 425.148 87.7847 426.256C87.292 426.745 86.7055 427.128 86.0605 427.383C86.5281 426.893 87.0214 426.428 87.5384 425.991C88.7063 424.855 89.6679 423.524 90.3805 422.059C90.5996 421.607 90.7925 421.142 90.9584 420.667L91.0342 420.458H91.2426C92.991 420.785 94.7755 420.874 96.5478 420.724Z" fill="#FF9A6C"/>
<path d="M106.761 422.703L99.5892 419.369C98.6269 418.833 97.5608 418.51 96.4629 418.421C95.2887 418.524 94.1556 418.904 93.1567 419.53L89.2914 421.519C89.083 421.633 88.8556 421.766 88.7893 421.983C88.723 422.201 88.903 422.58 89.1209 422.798C90.1186 423.742 91.4244 424.293 92.7967 424.349C94.169 424.404 95.5151 423.961 96.5861 423.101C97.1094 424.809 97.927 426.412 99.0019 427.838C99.5515 428.553 100.277 429.114 101.106 429.468C101.936 429.821 102.843 429.955 103.739 429.856" fill="#FFBF9D"/>
<path d="M103.72 429.951C103.66 429.98 103.596 429.999 103.53 430.008C103.338 430.055 103.141 430.081 102.943 430.084C102.19 430.086 101.449 429.904 100.783 429.553C99.7519 429.014 98.8774 428.218 98.244 427.241C97.4578 425.988 96.8219 424.646 96.3493 423.244L96.7093 423.329C96.1339 423.812 95.4684 424.176 94.7513 424.401C94.0342 424.625 93.2797 424.705 92.5314 424.636C91.718 424.581 90.9247 424.358 90.2009 423.983C89.8304 423.787 89.4838 423.548 89.1683 423.272C88.9974 423.131 88.8418 422.972 88.7041 422.798C88.6148 422.69 88.5506 422.564 88.5162 422.428C88.4818 422.292 88.478 422.15 88.5052 422.012C88.536 421.899 88.5897 421.794 88.6631 421.702C88.7364 421.611 88.8278 421.536 88.9315 421.482C89.102 421.377 89.2441 421.311 89.3957 421.226L90.2862 420.771L92.0388 419.824C93.1275 419.186 94.2883 418.68 95.4967 418.317C96.6568 418.108 97.8534 418.292 98.8977 418.838C99.8451 419.274 100.792 419.71 101.55 420.098L105.34 421.993C105.816 422.208 106.275 422.458 106.713 422.742C106.212 422.593 105.724 422.403 105.254 422.173L101.37 420.458L98.6988 419.265C97.7357 418.771 96.635 418.614 95.5725 418.819C94.4069 419.184 93.2877 419.683 92.2378 420.307L90.4946 421.254L89.6041 421.718C89.3009 421.87 88.9788 422.022 88.9599 422.173C88.9409 422.325 89.1778 422.694 89.4715 422.931C89.7607 423.182 90.0787 423.399 90.4188 423.575C91.0814 423.918 91.8063 424.125 92.5504 424.181C93.9345 424.316 95.3161 423.901 96.3967 423.026L96.643 422.817L96.7472 423.12C97.1888 424.499 97.783 425.824 98.5188 427.071C99.0987 428.016 99.9064 428.801 100.868 429.354C101.742 429.821 102.732 430.028 103.72 429.951Z" fill="#FF9A6C"/>
<path d="M200.019 328.839C200.085 323.458 200.966 318.096 200.72 312.734C200.474 307.372 199.1 301.754 195.349 297.898C191.597 294.042 185.051 292.583 180.693 295.662L179.746 300.248C181.47 320.995 181.242 342.074 182.967 362.821C183.194 365.549 185.401 368.022 186.642 370.457C187.883 372.891 190.375 374.909 193.103 374.739C196.675 374.521 199.015 370.902 200.123 367.491C204.197 355.166 199.858 341.846 200.019 328.839Z" fill="#263238"/>
<path d="M187.078 300.939C186.359 299.572 185.436 298.323 184.34 297.235C183.787 296.694 183.119 296.285 182.386 296.039C181.652 295.793 180.873 295.716 180.105 295.814C179.744 295.859 179.4 295.996 179.106 296.211C178.813 296.427 178.579 296.714 178.428 297.046C178.192 297.728 178.703 298.647 179.423 298.58L179.575 298.713C181.185 300.14 182.824 301.533 184.492 302.891C184.889 303.262 185.356 303.552 185.865 303.743C186.121 303.837 186.398 303.856 186.665 303.799C186.931 303.742 187.176 303.611 187.371 303.421C187.968 302.758 187.533 301.707 187.078 300.939Z" fill="#406AB3"/>
<path d="M190.12 306.225C184.758 299.67 177.558 295.89 169.089 295.805C164.352 295.719 162.334 296.752 158.895 297.642C155.451 298.474 152.408 300.485 150.293 303.327C147.858 306.784 145.812 310.659 145.348 314.875C144.741 319.182 144.534 323.537 144.732 327.882C144.931 332.249 146.334 336.475 148.787 340.094L159.814 341.988C165.905 342.197 172.082 342.396 178.022 341.041C183.962 339.686 189.722 336.456 192.896 331.255C197.31 323.979 195.473 312.772 190.12 306.225Z" fill="#263238"/>
<path d="M180.315 306.15L165.612 300.304L161.765 300.75C153.125 300.75 147.157 310.318 147.1 317.31C147.043 325.097 147.271 334.589 148.502 340.321C150.994 351.85 160.818 352.807 160.818 352.807C160.818 352.807 160.619 358.956 160.543 362.821L183.062 361.201L184.189 310.1C184.155 309.076 183.738 308.102 183.021 307.371C182.303 306.639 181.338 306.204 180.315 306.15Z" fill="#FFBF9D"/>
<path d="M165.792 337.621C165.701 337.032 165.397 336.496 164.939 336.115C164.522 335.756 163.998 335.543 163.449 335.511C162.899 335.478 162.355 335.627 161.898 335.935C161.424 336.3 161.056 336.785 160.831 337.339C160.607 337.893 160.533 338.498 160.619 339.09C160.872 339.445 161.198 339.742 161.576 339.961C161.953 340.18 162.373 340.316 162.807 340.359C162.943 340.368 163.079 340.368 163.215 340.359C163.918 340.374 164.598 340.112 165.11 339.63C165.367 339.368 165.562 339.051 165.68 338.703C165.798 338.355 165.836 337.986 165.792 337.621Z" fill="#FF9A6C"/>
<path d="M150.993 327.153C151.007 327.542 151.175 327.91 151.458 328.178C151.742 328.445 152.119 328.591 152.508 328.583C152.699 328.587 152.889 328.553 153.066 328.483C153.243 328.413 153.405 328.308 153.542 328.175C153.678 328.042 153.787 327.883 153.862 327.708C153.937 327.532 153.976 327.343 153.977 327.153C153.957 326.763 153.787 326.396 153.503 326.13C153.218 325.863 152.842 325.717 152.452 325.722C152.261 325.718 152.072 325.753 151.895 325.823C151.719 325.893 151.557 325.998 151.422 326.131C151.286 326.264 151.178 326.423 151.104 326.599C151.031 326.774 150.993 326.962 150.993 327.153Z" fill="#263238"/>
<path d="M149.734 321.203C149.923 321.383 151.013 320.493 152.576 320.407C154.139 320.322 155.418 321.061 155.57 320.853C155.721 320.644 155.437 320.417 154.907 320.076C154.185 319.633 153.345 319.424 152.5 319.479C151.666 319.52 150.867 319.825 150.217 320.351C149.781 320.758 149.63 321.118 149.734 321.203Z" fill="#263238"/>
<path d="M160.041 333.794C159.182 333.568 158.296 333.456 157.408 333.462C157 333.462 156.603 333.386 156.517 333.102C156.466 332.683 156.538 332.258 156.726 331.88C157.057 330.866 157.408 329.805 157.768 328.687C159.208 324.159 160.231 320.436 160.041 320.379C159.852 320.322 158.545 323.951 157.105 328.488L156.157 331.691C155.924 332.199 155.88 332.773 156.034 333.311C156.1 333.452 156.197 333.576 156.319 333.673C156.44 333.77 156.583 333.837 156.735 333.869C156.965 333.919 157.201 333.938 157.436 333.926C158.307 333.985 159.181 333.94 160.041 333.794Z" fill="#263238"/>
<path d="M160.798 352.798C166.279 352.581 171.592 350.846 176.145 347.786C176.145 347.786 172.441 356.076 160.741 355.63L160.798 352.798Z" fill="#FF9A6C"/>
<path d="M164.824 334.637C164.568 334.637 164.654 336.38 163.233 337.697C161.812 339.014 159.945 338.928 159.945 339.175C159.945 339.421 160.381 339.487 161.158 339.468C162.182 339.428 163.159 339.025 163.915 338.332C164.638 337.669 165.076 336.752 165.137 335.774C165.156 335.044 164.947 334.627 164.824 334.637Z" fill="#263238"/>
<path d="M150.273 315.585C150.566 315.955 151.779 315.633 153.219 315.671C154.659 315.709 155.872 316.021 156.175 315.671C156.307 315.491 156.127 315.121 155.606 314.723C154.902 314.265 154.078 314.025 153.238 314.032C152.398 314.009 151.569 314.23 150.851 314.666C150.33 315.026 150.15 315.396 150.273 315.585Z" fill="#263238"/>
<path d="M168.511 326.755C168.519 327.144 168.375 327.521 168.109 327.805C167.844 328.09 167.478 328.26 167.09 328.28C166.9 328.298 166.709 328.278 166.527 328.222C166.345 328.165 166.177 328.073 166.031 327.95C165.886 327.827 165.766 327.677 165.679 327.508C165.593 327.338 165.541 327.153 165.526 326.963C165.518 326.575 165.661 326.198 165.924 325.912C166.187 325.626 166.55 325.453 166.938 325.428C167.129 325.41 167.321 325.43 167.504 325.488C167.687 325.545 167.857 325.638 168.003 325.761C168.149 325.885 168.27 326.036 168.357 326.207C168.444 326.377 168.496 326.564 168.511 326.755Z" fill="#263238"/>
<path d="M171.446 320.578C171.266 320.777 170.12 319.962 168.51 319.991C166.899 320.019 165.743 320.853 165.563 320.654C165.383 320.455 165.658 320.218 166.17 319.83C166.854 319.336 167.675 319.068 168.519 319.062C169.355 319.044 170.175 319.293 170.859 319.773C171.361 320.142 171.541 320.493 171.446 320.578Z" fill="#263238"/>
<path d="M170.481 315.443C170.178 315.813 168.927 315.443 167.44 315.443C165.953 315.443 164.682 315.737 164.389 315.358C164.256 315.178 164.455 314.809 164.995 314.411C165.744 313.972 166.6 313.752 167.467 313.776C168.329 313.766 169.175 314.006 169.902 314.467C170.442 314.884 170.623 315.263 170.481 315.443Z" fill="#263238"/>
<path d="M182.209 329.635C182.209 328.773 183.052 326.679 183.905 326.499C186.169 326.016 190.29 325.969 190.65 331.766C191.143 339.696 183.071 338.55 183.071 338.322C183.071 338.095 182.351 332.628 182.209 329.635Z" fill="#FFBF9D"/>
<path d="M185.051 335.29C185.051 335.29 185.193 335.385 185.43 335.47C185.764 335.606 186.138 335.606 186.472 335.47C187.287 335.11 187.912 333.737 187.865 332.306C187.842 331.626 187.667 330.959 187.353 330.355C187.264 330.111 187.117 329.892 186.924 329.719C186.73 329.545 186.497 329.422 186.245 329.36C186.085 329.328 185.919 329.354 185.775 329.432C185.631 329.509 185.52 329.635 185.459 329.786C185.364 330.014 185.459 330.175 185.383 330.184C185.307 330.194 185.203 330.061 185.25 329.729C185.282 329.531 185.382 329.35 185.534 329.218C185.636 329.128 185.755 329.06 185.883 329.017C186.012 328.975 186.148 328.96 186.283 328.972C186.613 329.011 186.927 329.137 187.193 329.337C187.459 329.537 187.668 329.803 187.799 330.108C188.177 330.774 188.388 331.522 188.414 332.287C188.462 333.888 187.732 335.433 186.614 335.83C186.405 335.906 186.182 335.934 185.961 335.913C185.74 335.892 185.526 335.822 185.335 335.707C185.051 335.489 185.051 335.309 185.051 335.29Z" fill="#FF9A6C"/>
<path d="M184.207 326.518L182.208 328.583C173.512 320.256 156.516 299.414 157.473 300.655C161.437 299.182 165.708 298.729 169.893 299.338C176.363 300.437 188.622 303.677 188.433 311.303C188.243 318.93 184.207 326.518 184.207 326.518Z" fill="#263238"/>
<path d="M195.728 324.794C195.703 324.638 195.661 324.486 195.605 324.339C195.461 323.908 195.28 323.489 195.065 323.089C194.244 321.621 193.113 320.35 191.75 319.365C189.74 317.922 187.497 316.836 185.118 316.154C182.465 315.292 179.481 314.619 176.544 313.312C173.775 312.158 171.149 310.686 168.719 308.925C166.732 307.486 164.88 305.869 163.187 304.094C162.05 302.893 160.984 301.628 159.994 300.304L159.198 299.206C159.109 299.073 159.008 298.949 158.895 298.836C158.961 298.982 159.041 299.121 159.132 299.253C159.293 299.518 159.53 299.907 159.861 300.39C160.81 301.761 161.851 303.065 162.978 304.293C166.718 308.359 171.294 311.565 176.393 313.691C179.215 314.76 182.089 315.687 185.004 316.466C187.372 317.112 189.615 318.153 191.636 319.545C192.984 320.493 194.123 321.709 194.98 323.117C195.473 324.15 195.681 324.794 195.728 324.794Z" fill="#455A64"/>
<path d="M193.416 326.016C193.442 325.423 193.338 324.831 193.113 324.282C192.515 322.767 191.475 321.467 190.129 320.55C188.114 319.252 185.859 318.372 183.497 317.963C180.671 317.397 177.917 316.52 175.283 315.349C172.661 314.152 170.198 312.634 167.951 310.83C166.123 309.349 164.441 307.697 162.93 305.894C161.9 304.671 160.951 303.383 160.088 302.038L159.415 300.93C159.346 300.796 159.26 300.672 159.159 300.56C159.212 300.701 159.276 300.837 159.349 300.968L159.955 302.123C160.762 303.504 161.667 304.824 162.665 306.074C164.158 307.924 165.837 309.616 167.676 311.123C169.937 312.964 172.423 314.508 175.075 315.718C177.732 316.903 180.516 317.778 183.374 318.323C185.693 318.71 187.914 319.546 189.911 320.786C191.232 321.656 192.272 322.89 192.904 324.339C193.126 324.881 193.297 325.442 193.416 326.016Z" fill="#455A64"/>
<path d="M183.942 339.952C183.942 339.895 184.615 339.809 185.789 339.497C187.437 339.021 188.953 338.176 190.223 337.024C192.084 335.283 193.497 333.118 194.344 330.715C195.426 327.785 196.009 324.695 196.068 321.573C196.104 319.959 195.974 318.347 195.68 316.76C194.885 312.769 193.011 309.073 190.261 306.074C188.644 304.357 186.861 302.805 184.937 301.441C184.937 301.441 185.098 301.498 185.382 301.669C185.666 301.839 186.074 302.067 186.576 302.427C188.015 303.414 189.343 304.554 190.536 305.828C192.323 307.715 193.768 309.898 194.808 312.279C195.411 313.692 195.872 315.161 196.182 316.665C196.487 318.286 196.623 319.934 196.589 321.582C196.533 324.763 195.927 327.91 194.799 330.885C193.902 333.345 192.416 335.547 190.469 337.299C189.141 338.454 187.556 339.276 185.846 339.696C185.381 339.801 184.91 339.877 184.435 339.923C184.272 339.945 184.107 339.955 183.942 339.952Z" fill="#455A64"/>
<path d="M194.033 437.445L147.157 444.256C129.546 449.239 110.996 450.698 91.6035 448.993L162.154 481.904L190.48 482.34C190.48 482.34 199.101 482.34 200.607 474.818C202.114 467.296 203.79 444.389 203.79 444.389C203.79 444.389 198.192 439.538 194.033 437.445Z" fill="#263238"/>
<g opacity="0.3">
<path d="M193.889 457.178C194.664 461.873 194.944 466.636 194.723 471.388C196.163 469.808 197.223 467.92 197.824 465.868C198.425 463.816 198.55 461.654 198.19 459.546C197.783 457.235 196.816 454.686 198.029 452.669C198.844 451.314 200.994 449.76 200.682 448.216C200.682 448.216 198.787 448.216 197.091 448.15C195.718 448.093 192.866 448.008 192.866 448.008C194.093 450.955 194.358 454.214 193.624 457.32" fill="black"/>
</g>
<path d="M160.619 360.888L183.394 358.425L187.562 362.214L171.305 371.783L164.134 375.496L157.047 373.346L154.802 369.121L160.619 360.888Z" fill="#FFBF9D"/>
<path d="M129.914 388.617C129.914 388.617 137.057 374.919 138.819 371.925C141.832 366.819 147.459 363.929 147.459 363.929L160.618 360.888C160.618 360.888 159.254 367.52 167.439 367.937C177.86 368.515 184.33 358.529 184.33 358.529C184.33 358.529 196.21 359.751 199.488 361.125C202.766 362.499 212.05 366.392 213.414 378.727L216.598 398.877L191.493 400.772L191.834 427.601L181.166 436.327C181.166 436.327 150.538 446.871 148.577 447.562C147.63 447.894 147.876 434.877 145.688 423.717L141.557 413.685C139.885 409.677 138.896 405.419 138.63 401.085C138.469 398.243 138.544 396.064 138.544 396.064C138.544 396.064 132.102 393.856 129.914 388.617Z" fill="#455A64"/>
<path d="M149.695 437.047L191.786 424.418L191.492 400.791L212.922 399.162C212.922 399.162 211.217 411.402 210.961 417.673C210.601 426.701 206.224 439.32 203.382 441.992C200.54 444.663 148.605 447.581 148.605 447.581L149.695 437.047Z" fill="#FFBF9D"/>
<path d="M125.822 444.474C126.025 444.821 126.347 445.083 126.729 445.21C127.11 445.337 127.525 445.321 127.896 445.165C128.844 444.786 128.588 442.873 128.588 442.873L133.069 441.774C133.069 441.774 139.255 445.127 141.595 447.458C143.935 449.788 149.079 447.354 149.079 447.354L150.15 437.53L141.216 430.623C141.216 430.623 141.766 431.04 141.074 429.676C140.383 428.312 137.806 429.051 137.806 429.051C137.351 428.378 135.617 428.264 135.617 428.264L128.351 429.676C127.614 429.819 126.918 430.126 126.315 430.574C125.711 431.021 125.216 431.598 124.865 432.262L122.146 437.406C122.146 437.406 120.782 441.063 121.113 441.868C121.256 442.202 121.517 442.471 121.845 442.625C122.173 442.778 122.547 442.806 122.894 442.702C122.894 442.702 123.434 444.995 124.05 445.023C124.672 444.946 125.274 444.75 125.822 444.445V444.474Z" fill="#FFBF9D"/>
<path d="M140.875 436.327C140.875 436.402 139.927 436.383 138.336 436.573C136.309 436.831 134.327 437.363 132.443 438.155C131.409 438.597 130.411 439.12 129.459 439.718C128.616 440.277 127.725 440.76 127.489 441.433C127.438 441.577 127.425 441.733 127.451 441.884C127.478 442.035 127.543 442.176 127.64 442.295C127.79 442.492 127.994 442.64 128.228 442.721C128.625 442.844 128.862 442.721 128.881 442.721C128.9 442.721 128.663 442.939 128.18 442.854C127.894 442.79 127.636 442.637 127.441 442.418C127.302 442.268 127.204 442.084 127.157 441.885C127.111 441.686 127.117 441.477 127.176 441.281C127.338 440.84 127.628 440.457 128.01 440.182C128.389 439.889 128.787 439.595 129.232 439.301C131.946 437.524 135.064 436.458 138.298 436.203C139.158 436.105 140.028 436.147 140.875 436.327Z" fill="#FF9A6C"/>
<path d="M141.756 440.959C141.756 441.092 138.762 441.206 135.124 441.698C131.487 442.191 128.569 442.873 128.493 442.74C129.094 442.451 129.731 442.244 130.388 442.124C131.923 441.738 133.479 441.441 135.049 441.234C136.619 441.021 138.201 440.897 139.785 440.864C140.444 440.806 141.107 440.838 141.756 440.959Z" fill="#FF9A6C"/>
<path d="M125.851 444.284C125.774 444.035 125.723 443.777 125.699 443.517C125.602 442.804 125.545 442.086 125.529 441.367C125.52 440.866 125.552 440.365 125.623 439.87C125.711 439.286 125.914 438.726 126.22 438.221C126.85 437.053 127.707 436.023 128.74 435.19C129.762 434.354 130.898 433.669 132.113 433.153C133.12 432.779 134.17 432.534 135.239 432.423C136.186 432.319 136.869 432.291 137.38 432.262C137.641 432.224 137.906 432.224 138.166 432.262C137.229 432.477 136.28 432.635 135.324 432.736C134.293 432.887 133.283 433.154 132.312 433.532C131.146 434.052 130.056 434.728 129.072 435.54C128.09 436.33 127.261 437.293 126.628 438.382C126.122 439.28 125.87 440.299 125.898 441.329C125.822 443.157 125.955 444.284 125.851 444.284Z" fill="#FF9A6C"/>
<path d="M135.409 430.178C135.409 430.254 134.319 430.368 132.567 430.699C130.814 431.031 128.209 431.419 126.882 433.863C125.529 435.717 124.435 437.748 123.633 439.898C123.383 440.812 123.221 441.748 123.15 442.693C123.061 442.444 123.026 442.179 123.046 441.916C123.028 441.203 123.118 440.49 123.311 439.803C124.032 437.578 125.107 435.482 126.494 433.598C126.863 433.027 127.305 432.508 127.811 432.054C128.298 431.636 128.861 431.314 129.469 431.107C130.465 430.761 131.493 430.517 132.538 430.377C133.483 430.191 134.447 430.124 135.409 430.178Z" fill="#FF9A6C"/>
<path d="M139.834 446.056C139.67 445.97 139.515 445.868 139.37 445.753L138.072 444.872C136.437 443.794 134.741 442.811 132.994 441.925H133.098L128.627 443.053L128.769 442.844C128.812 443.216 128.812 443.591 128.769 443.962C128.741 444.372 128.593 444.764 128.343 445.09C128.187 445.253 127.986 445.366 127.765 445.412C127.561 445.483 127.345 445.512 127.13 445.497C126.685 445.465 126.266 445.277 125.946 444.966C125.868 444.886 125.795 444.8 125.728 444.711V444.644L125.993 444.72L125.851 444.786C125.667 444.883 125.477 444.969 125.283 445.042C125.084 445.12 124.882 445.186 124.676 445.241C124.568 445.273 124.457 445.295 124.345 445.308C124.201 445.331 124.054 445.315 123.918 445.26C123.702 445.123 123.531 444.925 123.426 444.692C123.321 444.496 123.229 444.293 123.151 444.085C122.992 443.675 122.862 443.254 122.763 442.825L123.037 442.987C122.735 443.079 122.414 443.087 122.108 443.008C121.802 442.929 121.524 442.768 121.304 442.541C121.075 442.299 120.941 441.983 120.925 441.651C120.924 441.352 120.953 441.054 121.01 440.76C121.264 439.62 121.599 438.499 122.014 437.407L123.464 434.659L124.411 432.926C124.692 432.326 125.035 431.758 125.434 431.23C125.868 430.722 126.4 430.307 126.997 430.008C127.58 429.74 128.2 429.561 128.835 429.477L135.675 428.16H135.732C136.153 428.192 136.569 428.268 136.973 428.388C137.403 428.483 137.791 428.711 138.082 429.041L137.816 428.985C138.177 428.785 138.581 428.675 138.993 428.665C139.406 428.655 139.815 428.745 140.185 428.928C140.825 429.332 141.291 429.96 141.492 430.69L141.426 430.604L147.584 435.341L149.241 436.649C149.441 436.794 149.628 436.955 149.8 437.132C149.583 437.019 149.377 436.886 149.185 436.734L147.47 435.493L141.217 430.889H141.17V430.822C140.994 430.188 140.584 429.643 140.024 429.297C139.711 429.147 139.367 429.075 139.021 429.086C138.674 429.098 138.336 429.193 138.034 429.363L137.873 429.439L137.769 429.307C137.528 429.057 137.218 428.885 136.878 428.814C136.501 428.709 136.114 428.643 135.723 428.615H135.779L128.939 429.96C128.342 430.038 127.761 430.207 127.215 430.462C126.678 430.729 126.2 431.103 125.813 431.561C125.44 432.066 125.122 432.609 124.866 433.181L123.918 434.915C123.416 435.862 122.971 436.81 122.469 437.662C122.078 438.732 121.762 439.827 121.522 440.94C121.467 441.199 121.439 441.462 121.436 441.726C121.449 441.954 121.543 442.169 121.702 442.333C121.865 442.496 122.069 442.612 122.292 442.669C122.515 442.725 122.75 442.721 122.971 442.655L123.198 442.598V442.816C123.303 443.223 123.426 443.64 123.568 444.029C123.672 444.384 123.86 444.709 124.117 444.976C124.179 444.994 124.245 444.994 124.307 444.976L124.582 444.919C124.773 444.876 124.96 444.816 125.141 444.739C125.321 444.673 125.501 444.588 125.681 444.502L125.813 444.445L126.088 444.521V444.569C126.14 444.642 126.197 444.712 126.258 444.777C126.435 444.965 126.662 445.099 126.912 445.163C127.162 445.227 127.425 445.218 127.67 445.137C127.821 445.111 127.961 445.038 128.068 444.929C128.402 444.357 128.526 443.687 128.418 443.034V442.863H128.57L133.061 441.802H133.117C134.863 442.711 136.544 443.74 138.148 444.881C138.707 445.289 139.095 445.611 139.408 445.829C139.555 445.894 139.698 445.97 139.834 446.056Z" fill="#FF9A6C"/>
<path d="M117.95 452.138C117.95 452.138 88.2501 442.807 78.9281 439.822C62.823 434.612 52.3451 439.879 49.0294 445.62C44.7284 453.076 55.0451 467.618 59.024 470.962C70.7997 480.862 90.988 482.198 90.988 482.198L163.575 482.065L142.42 453.284L117.95 452.138Z" fill="#263238"/>
<path d="M122.403 465.61C110.307 467.017 98.051 465.349 86.7718 460.759C84.8475 459.889 82.8661 459.152 80.8413 458.552C78.8398 458.047 76.7648 457.899 74.7119 458.116C73.8972 458.137 73.0949 458.321 72.3528 458.658C71.6107 458.995 70.9439 459.477 70.392 460.077C68.9425 461.972 69.6814 464.7 70.4867 466.955C71.4341 469.607 72.3814 472.317 74.2761 474.439C76.4266 476.912 79.5529 478.333 82.6887 479.318C88.8181 481.213 95.2886 481.809 101.712 482.056L123.767 480.853L122.403 465.61Z" fill="#E0E0E0"/>
<path d="M79.8093 458.561C79.9542 458.739 80.0665 458.941 80.1409 459.158C80.397 459.723 80.5939 460.314 80.7282 460.92C81.2044 462.936 81.1208 465.044 80.4863 467.015C79.8518 468.987 78.6907 470.748 77.1283 472.108C76.6632 472.516 76.1622 472.88 75.6314 473.198C75.243 473.416 75.0251 473.51 75.0062 473.482C74.9872 473.454 75.802 472.932 76.9009 471.862C78.3427 470.483 79.4176 468.767 80.0281 466.867C80.6385 464.968 80.7652 462.947 80.3967 460.986C80.1314 459.47 79.7335 458.589 79.8093 458.561Z" fill="#263238"/>
<path d="M193.758 450.319C192.034 445.431 191.749 438.25 181.111 434.801C170.472 431.353 162.438 437.966 156.972 440.258C151.506 442.551 121.635 458.94 121.635 458.94C121.635 458.94 116.008 468.973 117.609 473.406C119.21 477.84 126.486 482.217 126.486 482.217H159.899C168.52 482.217 184.531 481.923 184.531 481.923C186.674 478.409 188.595 474.764 190.281 471.009L190.565 469.57C190.594 468.423 195.473 455.208 193.758 450.319Z" fill="#263238"/>
<path d="M175.246 475.699C175.203 475.868 175.118 476.025 175 476.154C174.676 476.529 174.307 476.863 173.901 477.148C172.409 478.177 170.823 479.062 169.164 479.791C168.031 480.32 166.867 480.778 165.678 481.165C164.302 481.598 162.891 481.915 161.462 482.112C158.201 482.437 154.924 482.564 151.647 482.491C144.703 482.605 138.384 482.87 133.837 482.814C131.554 482.814 129.707 482.709 128.437 482.577C127.947 482.534 127.46 482.464 126.978 482.368C126.807 482.348 126.639 482.31 126.476 482.255C126.476 482.207 127.177 482.33 128.447 482.397C129.716 482.463 131.563 482.51 133.837 482.491C138.394 482.491 144.684 482.141 151.647 482.027C154.907 482.098 158.168 481.984 161.415 481.686C162.819 481.514 164.206 481.229 165.564 480.834C166.746 480.469 167.903 480.032 169.032 479.526C170.679 478.833 172.264 478 173.768 477.035C174.178 476.761 174.556 476.443 174.896 476.087C175.161 475.86 175.218 475.689 175.246 475.699Z" fill="#263238"/>
<path d="M126.485 482.217L126.039 481.98C125.755 481.819 125.338 481.554 124.798 481.203C123.227 480.178 121.755 479.007 120.403 477.707C119.422 476.768 118.586 475.689 117.92 474.505C117.24 473.023 117.067 471.359 117.428 469.768C118.24 465.96 119.603 462.29 121.473 458.874V458.826C126.949 455.814 133.23 452.394 140.089 448.709C143.518 446.871 147.09 444.966 150.803 443.024C152.698 442.077 154.593 441.13 156.488 440.182C158.382 439.235 160.324 438.288 162.285 437.264C164.995 435.78 167.9 434.686 170.916 434.015C172.397 433.719 173.906 433.583 175.416 433.608C176.893 433.652 178.362 433.862 179.793 434.233C182.567 434.916 185.172 436.161 187.447 437.89C188.505 438.766 189.442 439.779 190.233 440.902C190.96 442.009 191.56 443.195 192.023 444.436C192.497 445.649 192.828 446.871 193.169 448.064C193.56 449.224 193.877 450.407 194.117 451.607C194.266 453.9 194.074 456.202 193.548 458.438C193.122 460.57 192.601 462.559 192.061 464.406C191.796 465.354 191.53 466.235 191.284 467.097C191.038 467.959 190.754 468.812 190.621 469.569C190.507 470.109 190.422 470.517 190.327 471C189.415 473.927 188.125 476.723 186.49 479.318C185.911 480.245 185.228 481.104 184.454 481.876L184.577 481.705C184.681 481.582 184.814 481.43 184.975 481.222C185.477 480.591 185.945 479.933 186.377 479.251C187.955 476.642 189.199 473.844 190.081 470.924C190.621 470.469 190.517 470.024 190.356 469.484C190.521 468.62 190.736 467.766 191 466.926L191.767 464.245C192.279 462.351 192.79 460.399 193.207 458.286C193.712 456.085 193.891 453.822 193.738 451.57C193.489 450.393 193.172 449.233 192.79 448.093C192.44 446.899 192.099 445.686 191.635 444.502C191.182 443.29 190.595 442.133 189.882 441.054C189.113 439.967 188.202 438.989 187.173 438.145C183.766 435.592 179.661 434.138 175.406 433.977C173.931 433.953 172.457 434.089 171.011 434.384C168.031 435.046 165.16 436.127 162.484 437.596C160.59 438.543 158.695 439.68 156.658 440.523C154.621 441.366 152.869 442.371 150.974 443.365C147.27 445.26 143.689 447.155 140.259 449.05L121.615 459.101L121.681 459.025C119.817 462.402 118.448 466.03 117.617 469.797C117.244 471.333 117.394 472.95 118.044 474.391C118.681 475.564 119.493 476.634 120.45 477.565C121.778 478.875 123.221 480.064 124.76 481.118L125.973 481.932C126.314 482.112 126.485 482.217 126.485 482.217Z" fill="#263238"/>
<path d="M180.863 469.816C180.863 469.816 190.82 471.009 189.939 475.879C189.058 480.748 185.799 482.387 185.799 482.387L158.742 482.444C158.742 482.444 174.895 481.326 180.863 469.816Z" fill="#E0E0E0"/>
<path d="M181.83 467.457C181.828 467.931 181.725 468.399 181.527 468.831C181.161 469.92 180.616 470.941 179.917 471.853C178.973 473.182 177.653 474.198 176.127 474.771C177.384 473.828 178.536 472.755 179.566 471.568C180.435 470.264 181.192 468.888 181.83 467.457Z" fill="#263238"/>
<path d="M178.42 469.361C178.436 470.583 178.108 471.785 177.473 472.828C176.986 473.935 176.243 474.91 175.303 475.671C175.199 475.585 176.175 474.325 177.056 472.592C177.937 470.858 178.249 469.342 178.42 469.361Z" fill="#263238"/>
<path d="M191.076 481.032C191 481.032 191.644 479.763 192.421 477.669C194.461 472.202 195.134 466.319 194.382 460.532C194.088 458.324 193.747 456.97 193.823 456.951C193.973 457.25 194.082 457.569 194.145 457.898C194.379 458.755 194.566 459.625 194.704 460.503C195.652 466.341 194.97 472.327 192.734 477.802C192.396 478.609 192.013 479.397 191.587 480.161C191.452 480.471 191.28 480.763 191.076 481.032Z" fill="#455A64"/>
<g opacity="0.3">
<path d="M185.45 467.192C185.374 466.538 185.118 465.761 184.502 465.628C183.706 465.467 183.166 466.377 182.854 467.116C179.367 475.045 168.103 481.232 159.473 482.056C163.659 482.046 167.837 481.704 171.969 481.033C175.492 480.505 178.795 478.994 181.499 476.675C182.843 475.505 183.9 474.041 184.585 472.396C185.27 470.751 185.566 468.97 185.45 467.192Z" fill="black"/>
</g>
<path d="M119.532 456.401C117.882 455.938 116.278 455.326 114.738 454.573C113.138 453.967 111.597 453.215 110.134 452.328C111.782 452.793 113.386 453.402 114.928 454.146C116.528 454.756 118.07 455.51 119.532 456.401Z" fill="#263238"/>
<g opacity="0.2">
<path d="M129.157 452.214C116.273 449.751 103.342 447.562 90.3623 445.649L80.6992 448.699C83.4087 453.739 88.7613 456.951 94.3223 458.277C99.8833 459.603 105.691 459.291 111.375 458.77C117.647 458.192 124.089 457.311 129.546 454.165C129.962 453.929 130.436 453.569 130.379 453.085C130.322 452.602 129.716 452.318 129.157 452.214Z" fill="black"/>
</g>
<path d="M65.7408 413.846L81.9785 449.751C82.307 450.483 82.8387 451.105 83.5105 451.543C84.1823 451.981 84.9659 452.217 85.768 452.223L133.136 452.839L139.104 449.628L129.754 448.945L115.202 414.026C114.976 413.482 114.595 413.018 114.106 412.689C113.618 412.361 113.044 412.183 112.455 412.178L67.086 411.837C66.844 411.829 66.6038 411.882 66.3881 411.992C66.1724 412.102 65.9884 412.265 65.8537 412.467C65.7189 412.668 65.6378 412.9 65.618 413.142C65.5983 413.383 65.6405 413.625 65.7408 413.846Z" fill="#E0E0E0"/>
<path d="M65.7404 413.846C65.6629 413.712 65.6145 413.564 65.5983 413.41C65.5683 413.183 65.5931 412.951 65.6705 412.735C65.748 412.52 65.8759 412.325 66.0435 412.169C66.3025 411.929 66.6381 411.788 66.9909 411.771H71.1498L90.1444 411.837L103.35 411.904L110.731 411.951H112.625C113.326 412.002 113.992 412.281 114.519 412.747C115.028 413.223 115.404 413.824 115.61 414.49L116.387 416.385C120.527 426.304 125.103 437.274 129.953 448.87L129.726 448.709L138.754 449.372H139.076L140.022 449.438L139.218 449.874L133.25 453.085H133.184H133.117L97.2117 452.593L89.197 452.479C87.8897 452.479 86.6392 452.479 85.3413 452.403C84.693 452.327 84.0695 452.109 83.5146 451.765C82.9597 451.421 82.4869 450.96 82.1297 450.414C80.0171 445.971 78.255 441.888 76.5403 438.098L68.6014 420.345C67.6541 418.27 66.9719 416.65 66.4793 415.523C66.2425 414.992 66.072 414.575 65.9393 414.272C65.8067 413.969 65.7688 413.836 65.7688 413.836C65.8497 413.971 65.9225 414.11 65.9867 414.253L66.5741 415.485C67.0856 416.593 67.8246 418.204 68.7814 420.221L76.8719 437.918C78.5866 441.641 80.4245 445.829 82.4897 450.149C82.8112 450.641 83.2379 451.057 83.7392 451.365C84.2405 451.673 84.8038 451.866 85.3886 451.93C86.6013 451.986 87.9181 451.977 89.1781 451.996L97.1928 452.091L133.098 452.526H132.966L138.934 449.305L139.048 449.808H138.726L129.697 449.154H129.535L129.47 449.012C124.648 437.397 120.08 426.427 115.95 416.498L115.183 414.651C115.014 414.049 114.688 413.502 114.236 413.069C113.786 412.662 113.212 412.419 112.607 412.377H110.711L103.332 412.311L90.1349 412.178L71.1214 411.951H68.1467H66.972C66.7843 411.958 66.6 412.003 66.4304 412.084C66.2607 412.164 66.1092 412.278 65.9851 412.419C65.861 412.56 65.7669 412.725 65.7086 412.903C65.6502 413.082 65.6288 413.27 65.6456 413.457C65.67 413.588 65.7017 413.718 65.7404 413.846Z" fill="#263238"/>
<path d="M128.323 452.773C128.234 452.649 128.161 452.516 128.105 452.375L127.565 451.219C127.091 450.139 126.447 448.68 125.67 446.918C124.088 443.271 121.937 438.231 119.626 432.622C117.314 427.014 115.268 421.927 113.856 418.223C113.146 416.328 112.587 414.859 112.227 413.808C112.057 413.325 111.924 412.927 111.81 412.595C111.757 412.454 111.719 412.308 111.697 412.159C111.783 412.282 111.853 412.416 111.905 412.557L112.398 413.742C112.843 414.84 113.44 416.309 114.16 418.099C115.694 421.832 117.769 426.872 120.052 432.452C122.335 438.032 124.439 443.053 125.973 446.785L127.745 451.143C127.925 451.626 128.076 452.015 128.2 452.337C128.265 452.474 128.307 452.622 128.323 452.773Z" fill="#263238"/>
<path d="M98.9549 431.249C98.9568 431.71 98.8215 432.162 98.5661 432.547C98.3108 432.932 97.9469 433.232 97.5207 433.409C97.0944 433.587 96.6251 433.634 96.1721 433.544C95.7191 433.455 95.303 433.233 94.9765 432.906C94.65 432.58 94.4279 432.163 94.3383 431.71C94.2486 431.257 94.2956 430.788 94.4731 430.362C94.6507 429.936 94.9509 429.572 95.3356 429.316C95.7203 429.061 96.1722 428.926 96.6339 428.928C97.2495 428.928 97.8398 429.172 98.2751 429.607C98.7104 430.043 98.9549 430.633 98.9549 431.249Z" fill="white"/>
<path d="M145.044 373.488C145.12 373.488 144.438 374.805 143.481 376.927C140.977 382.467 139.341 388.359 138.631 394.396C138.347 396.717 138.271 398.186 138.186 398.186C138.135 397.847 138.135 397.502 138.186 397.163C138.186 396.509 138.186 395.562 138.318 394.387C138.854 388.273 140.517 382.311 143.225 376.804C143.747 375.752 144.173 374.909 144.542 374.36C144.674 374.05 144.842 373.757 145.044 373.488Z" fill="#263238"/>
<path d="M216.597 398.877C216.428 398.929 216.253 398.958 216.076 398.963L214.57 399.105L208.943 399.578L189.702 401.028H189.456V400.782C189.294 398.224 189.124 395.524 188.953 392.757C188.679 387.926 188.442 383.284 188.366 379.125C188.121 375.378 188.974 371.642 190.82 368.372C192.087 366.167 193.957 364.37 196.21 363.19C196.818 362.885 197.453 362.635 198.105 362.442C198.332 362.371 198.563 362.314 198.797 362.271C198.797 362.347 197.849 362.546 196.286 363.361C194.114 364.581 192.32 366.378 191.104 368.552C189.348 371.789 188.562 375.463 188.84 379.134C188.934 383.312 189.181 387.916 189.456 392.748C189.626 395.514 189.787 398.214 189.948 400.763L189.683 400.535L208.943 399.266L214.627 398.934L216.133 398.877H216.597Z" fill="#263238"/>
<path d="M169.39 415.286C169.098 415.229 168.817 415.127 168.557 414.983C168.231 414.846 167.914 414.688 167.609 414.509C167.201 414.289 166.805 414.045 166.425 413.779C165.417 413.099 164.487 412.312 163.649 411.43C162.637 410.337 161.747 409.136 160.997 407.849C160.273 406.547 159.698 405.168 159.282 403.737C158.952 402.569 158.749 401.368 158.676 400.156C158.648 399.693 158.648 399.228 158.676 398.764C158.677 398.412 158.703 398.061 158.752 397.712C158.76 397.411 158.818 397.114 158.922 396.831C159.017 396.831 158.856 398.11 159.055 400.128C159.174 401.306 159.405 402.471 159.746 403.605C160.182 404.992 160.756 406.331 161.461 407.603C162.186 408.856 163.041 410.031 164.009 411.108C164.815 411.98 165.7 412.776 166.653 413.486C168.263 414.689 169.438 415.2 169.39 415.286Z" fill="#263238"/>
</g>
</g>
<defs>
<clipPath id="clip0_217_1062">
<rect width="500" height="500" fill="white"/>
</clipPath>
</defs>
</svg>
